<?xml version="1.0" standalone="no"?>
<!DOCTYPE svg PUBLIC "-//W3C//DTD SVG 1.1//EN" "http://www.w3.org/Graphics/SVG/1.1/DTD/svg11.dtd" >
<svg xmlns="http://www.w3.org/2000/svg">
<metadata>Generated by IcoMoon</metadata>
<defs>
<font id="hcom-icons" horiz-adv-x="1024">
<font-face units-per-em="1024" ascent="960" descent="-64" />
<missing-glyph horiz-adv-x="1024" />
<glyph unicode="&#x20;" horiz-adv-x="512" d="" />
<glyph unicode="&#xe000;" glyph-name="wifi" d="M848.043 967.111h-672.085c-97.024 0-175.957-79.019-175.957-175.957v-672c0-97.109 78.933-176.043 175.957-176.043h672c97.024 0 176.043 78.933 176.043 175.957v672.085c0 96.939-79.019 175.957-175.957 175.957zM608.683 231.367l-60.501-60.587c-9.557-9.557-22.613-15.019-36.267-15.019-13.568 0-26.709 5.376-36.267 15.019l-60.501 60.587c-19.968 20.053-19.968 52.395 0.171 72.533 53.248 53.248 140.032 53.248 193.365 0 4.864-4.864 8.619-10.581 11.179-16.725 2.389-5.803 3.499-12.203 3.669-18.347 0-0.427 0.171-0.853 0.171-1.195 0-1.707-0.768-3.072-0.853-4.693-0.512-5.035-1.024-9.984-2.987-14.763-2.56-6.229-6.315-11.947-11.179-16.811zM753.835 376.434c-9.984-9.984-23.211-15.019-36.267-15.019-13.141 0-26.368 5.035-36.352 15.019-45.141 45.141-105.301 70.059-169.216 70.059 0 0 0 0-0.085 0-63.915 0-124.075-24.917-169.216-70.059-20.053-19.968-52.565-20.053-72.619 0-19.968 19.968-19.968 52.48 0 72.619 64.597 64.597 150.528 100.096 241.835 100.096 0.085 0 0.085 0 0.085 0 91.307 0 177.237-35.499 241.835-100.181 19.968-20.053 19.968-52.565 0-72.533zM898.987 521.586c-10.069-10.069-23.125-15.189-36.352-15.189-13.056 0-26.283 5.12-36.267 15.104-173.312 173.397-455.595 173.397-628.907 0-20.053-19.968-52.48-20.053-72.533 0.085-20.053 19.968-20.053 52.48 0 72.619 213.419 213.248 560.64 213.248 774.059 0 20.139-20.053 20.139-52.565 0-72.619z" />
<glyph unicode="&#xe006;" glyph-name="transport" horiz-adv-x="851" d="M682 967.111h-512c-94.208 0-170.667-76.459-170.667-170.667v-512c0-91.477 72.192-165.461 162.56-169.813l-70.059-105.131c-13.056-19.541-7.765-46.080 11.861-59.136 7.253-4.949 15.445-7.253 23.637-7.253 13.739 0 27.221 6.656 35.499 19.029l101.12 151.637h324.181l101.12-151.637c8.189-12.373 21.675-19.029 35.413-19.029 8.192 0 16.384 2.304 23.637 7.168 19.541 13.056 24.917 39.595 11.861 59.136l-70.059 105.216c90.368 4.352 162.56 78.336 162.56 169.813v512c0 94.208-76.459 170.667-170.667 170.667zM383.333 881.778h85.333c23.555 0 42.667-19.115 42.667-42.667s-19.112-42.667-42.667-42.667h-85.333c-23.552 0-42.664 19.115-42.664 42.667s19.112 42.667 42.664 42.667zM84.669 284.444c0 47.189 38.144 85.333 85.333 85.333s85.333-38.144 85.333-85.333-38.147-85.333-85.336-85.333-85.331 38.144-85.331 85.333zM682 199.111c-47.189 0-85.333 38.144-85.333 85.333s38.144 85.333 85.333 85.333 85.333-38.144 85.333-85.333-38.144-85.333-85.333-85.333zM767.333 540.444c0-47.189-38.144-85.333-85.333-85.333h-512c-47.189 0-85.331 38.144-85.331 85.333v85.333c0 47.189 38.144 85.333 85.333 85.333h512c47.189 0 85.333-38.144 85.333-85.333l-0.003-85.333z" />
<glyph unicode="&#xe009;" glyph-name="todo" d="M512 625.778c30.464 0 234.667 0 256 0 47.189 0 85.333 38.144 85.333 85.333s-38.144 85.333-85.333 85.333c-25.941 0-230.059 0-256 0-47.189 0-85.333-38.144-85.333-85.333s38.144-85.333 85.333-85.333zM768 540.444c-25.941 0-230.059 0-256 0-47.189 0-85.333-38.144-85.333-85.333s38.144-85.333 85.333-85.333c25.941 0 230.059 0 256 0 47.189 0 85.333 38.144 85.333 85.333s-38.144 85.333-85.333 85.333zM768 284.444c-25.941 0-230.059 0-256 0-47.189 0-85.333-38.144-85.333-85.333s38.144-85.333 85.333-85.333c25.941 0 230.059 0 256 0 47.189 0 85.333 38.144 85.333 85.333s-38.144 85.333-85.333 85.333zM854.187 967.111h-683.52c-86.357 0-170.667-84.224-170.667-170.667v-682.667c0-86.443 84.309-170.667 170.667-170.667h683.52c86.357 0 169.813 84.309 169.813 170.667v682.667c0 86.357-83.541 170.667-169.813 170.667zM938.667 113.778c0-43.435-41.899-85.333-85.333-85.333h-682.667c-43.349 0-85.333 41.984-85.333 85.419v682.496c0 43.435 41.984 85.419 85.333 85.419h682.667c43.435 0 85.333-41.899 85.333-85.333v-682.667zM170.667 711.111c0-47.128 38.205-85.333 85.333-85.333s85.333 38.205 85.333 85.333c0 47.128-38.205 85.333-85.333 85.333s-85.333-38.205-85.333-85.333zM170.667 455.111c0-47.128 38.205-85.333 85.333-85.333s85.333 38.205 85.333 85.333c0 47.128-38.205 85.333-85.333 85.333s-85.333-38.205-85.333-85.333zM170.667 199.111c0-47.128 38.205-85.333 85.333-85.333s85.333 38.205 85.333 85.333c0 47.128-38.205 85.333-85.333 85.333s-85.333-38.205-85.333-85.333z" />
<glyph unicode="&#xe00a;" glyph-name="themes" horiz-adv-x="936" d="M912.475 711.282c-47.019 81.323-147.968 122.965-238.251 99.072-24.571 90.283-107.176 156.757-205.141 156.757s-180.563-66.475-205.053-156.757c-90.795 23.893-191.317-17.749-238.336-99.157-28.419-49.237-35.925-106.411-21.248-161.365 9.813-36.352 28.587-68.779 54.357-94.805-65.792-66.304-82.005-171.179-33.109-255.829 46.933-81.408 147.541-123.221 238.336-99.243 24.491-90.368 107.179-156.843 205.053-156.843s180.565 66.475 205.056 156.843c17.664-4.779 35.755-7.168 54.101-7.168v0c75.776 0 146.347 40.789 184.149 106.411 48.896 84.736 32.597 189.696-33.195 256 65.883 66.389 82.179 171.264 33.28 256.085zM469.083 218.396c-130.731 0-236.715 106.069-236.715 236.629 0 130.901 105.984 236.8 236.715 236.8s236.629-105.899 236.629-236.8c0.088-130.56-105.893-236.629-236.629-236.629z" />
<glyph unicode="&#xe00d;" glyph-name="spa" horiz-adv-x="1363" d="M1327.968 323.826c-45.923 22.277-101.051 33.077-159.133 33.645 52.629 126.739 69.677 257.568 44.899 373.507-6.707 30.461-32.395 54.333-65.016 50.467-86.957-3.293-175.731-30.685-260.184-77.176-34.328 106.165-90.592 197.099-165.616 260.069-23.757 20.005-58.309 20.005-82.181 0-74.677-62.971-131.053-153.904-165.269-260.069-84.339 46.491-173.227 73.883-260.069 77.293-31.712 3.069-58.424-20.008-64.904-50.581-24.891-115.939-7.843-246.659 44.672-373.509-58.085-0.568-113.099-11.365-159.133-33.645-27.963-13.64-42.056-45.355-33.531-75.36 32.28-111.507 129.352-213.013 259.728-270.981 68.541-30.347 141.515-46.605 211.189-46.605 60.016 0 116.851 12.048 164.021 35.237 0.912 0.568 1.595 1.253 2.389 1.819 0.341-0.341 0.683-0.683 1.021-1.021 12.051-10.003 26.488-14.891 41.149-14.891 14.664 0 29.325 4.888 41.035 14.891 0.456 0.341 0.683 0.683 1.136 1.021 0.795-0.565 1.477-1.251 2.387-1.819 47.285-23.075 104.117-35.237 164.021-35.237 69.677 0 142.539 16.253 211.080 46.491 130.488 58.085 227.563 159.475 259.728 271.208 8.752 30.008-5.456 61.611-33.419 75.248zM1096.2 634.364c5.797-97.64-22.619-208.123-79.451-311.675-21.6-6.477-43.195-13.867-64.224-23.075-16.253-7.275-32.168-15.229-47.285-23.869 12.843 56.605 20.232 115.939 20.232 177.435 0 36.371-3.069 72.179-7.728 107.075 58.083 36.827 118.896 62.741 178.456 74.109zM267.912 634.364c59.333-11.365 120.259-37.285 178.344-74.224-4.549-35.011-7.843-70.701-7.843-107.075 0-61.493 7.501-120.715 20.461-177.435-15.349 8.755-31.147 16.709-47.515 23.984-21.141 9.323-42.397 16.597-64.221 23.075-56.605 103.549-85.024 213.92-79.227 311.675zM661.653 130.252c0 0.229-0.115 0.456-0.456 0.683-0.453-0.456-0.907-1.595-1.248-1.253-152.997 179.027-80.704 484.109-80.931 484.109l-0.341-2.045c16.936 69.451 45.125 129.24 82.635 170.501 11.821 13.072 29.101 13.072 41.149 0 37.285-41.261 65.701-101.051 82.635-170.501 0 0 72.405-305.083-80.816-484.56-0.683-0.344-0.912 1.133-1.48 1.36-0.229-0.112-0.229-0.227-0.453-0.565-6.027-6.595-13.187-9.779-20.461-9.779s-14.549 3.181-20.573 9.773c-0.112 0.344-0.341 0.459-0.568 0.571-0.453-0.227-0.683-0.795-1.251-1.251zM793.28 73.076c0 0.115 2.387-0.568 2.613-0.341-0.341 0.341-1.251 0.229-1.024 0.456 27.965 27.733 70.589 86.616 70.589 86.616 86.16 62.627 202.896 79.795 202.896 79.795l-1.253-0.229c46.149 5.683 89.456 2.16 123.896-11.595 10.912-4.435 15.117-15.344 10.229-26.029-16.027-33.304-45.013-65.243-82.976-92.525 0 0-166.976-118.325-313.947-64.336-0.229 0 0.456 0.795 0.683 1.136-0.229 0-0.456 0-0.456 0-5.571 2.387-9.32 6.024-11.365 10.685-1.819 4.549-1.592 10.005 0.797 15.344 0.227 0.115 0.227 0.341 0.453 0.341-0.453 0.344-1.477 0.912-1.136 0.683zM519.912 73.076c0.341 0.229-0.795-0.341-1.136-0.795 0.229 0 0.229-0.229 0.341-0.341 2.613-5.227 2.613-10.683 0.909-15.344-1.933-4.661-5.688-8.184-11.253-10.685-0.115 0-0.229 0-0.456 0 0.115-0.341 1.021-1.136 0.568-1.136-146.744-53.877-313.947 64.448-313.947 64.448-37.851 27.28-66.949 59.219-82.861 92.525-4.888 10.797-0.683 21.709 10.341 26.144 34.325 13.64 77.52 17.165 123.896 11.595l-1.363 0.115c-0.229 0 116.509-17.165 202.781-79.795 0 0 42.624-58.992 70.587-86.613 0.341-0.229-0.683-0.115-1.021-0.456 0.112-0.229 2.499 0.453 2.613 0.339z" />
<glyph unicode="&#xe00f;" glyph-name="ski" d="M1.792 823.495c0-76.301 61.854-138.155 138.155-138.155s138.155 61.854 138.155 138.155c0 76.301-61.854 138.155-138.155 138.155s-138.155-61.854-138.155-138.155zM949.675 474.652l-198.059-104.363c-2.987 2.987-4.608 6.741-7.765 9.472l-58.88 51.2 55.893 64.427c46.336 53.248 40.704 134.059-12.629 180.395l-15.019 12.971 179.968 94.293 12.373-23.467c7.083-13.397 19.541-22.187 33.28-24.832 10.411-1.963 21.419-0.597 31.403 4.693 23.552 12.288 32.597 41.131 20.224 64.597l-12.373 23.552 20.139 10.496c23.381 12.373 32.427 41.216 20.224 64.768-12.459 23.467-41.301 32.427-64.853 20.224l-20.053-10.496-12.288 23.381c-12.459 23.552-41.387 32.512-64.768 20.224-23.296-12.203-32.427-41.045-19.968-64.597l12.288-23.552-213.333-111.872-81.579 70.997c-53.333 46.251-133.973 40.619-180.309-12.715-46.336-53.248-40.704-134.059 12.629-180.48l77.568-67.328-55.808-64.341c-46.336-53.333-40.619-134.144 12.715-180.48l90.112-78.251-374.443-197.291c-7.851-4.437-24.064-7.68-47.104 22.357-16.725 21.76-47.957 26.027-69.717 9.216-21.845-16.811-26.027-48.213-9.131-69.973 29.44-38.485 62.635-56.576 93.099-62.379 34.645-6.827 65.707 2.304 83.2 15.019l809.301 425.728c24.235 12.8 33.707 43.008 20.907 67.499-12.8 24.32-42.923 33.536-67.243 20.907z" />
<glyph unicode="&#xe010;" glyph-name="shuttle" horiz-adv-x="936" d="M767.667 967.111h-597.336c-94.208 0-170.664-76.459-170.664-170.667v-512c0-94.208 76.459-170.667 170.667-170.667v-85.333c0-47.189 38.144-85.333 85.333-85.333s85.333 38.144 85.333 85.333v85.333h256v-85.333c0-47.189 38.144-85.333 85.333-85.333s85.333 38.144 85.333 85.333v85.333c94.208 0 170.667 76.459 170.667 170.667v512c0 94.208-76.459 170.667-170.667 170.667zM383.667 881.778h170.667c23.552 0 42.667-19.115 42.667-42.667s-19.115-42.667-42.667-42.667h-170.667c-23.552 0-42.667 19.115-42.667 42.667s19.115 42.667 42.667 42.667zM85 284.444c0 47.189 38.144 85.333 85.333 85.333s85.333-38.144 85.333-85.333-38.144-85.333-85.336-85.333-85.331 38.144-85.331 85.333zM767.667 199.111c-47.192 0-85.333 38.144-85.333 85.333s38.144 85.333 85.333 85.333 85.333-38.144 85.333-85.333-38.144-85.333-85.333-85.333zM853 540.444c0-47.189-38.144-85.333-85.333-85.333h-597.336c-47.187 0-85.331 38.144-85.331 85.333v85.333c0 47.189 38.144 85.333 85.333 85.333h597.333c47.189 0 85.333-38.144 85.333-85.333v-85.333z" />
<glyph unicode="&#xe012;" glyph-name="shortlist-plus-selected" d="M855.32 889.754c-40.216 20.293-82.944 29.509-125.115 29.509-80.152-0.187-160.211-33.141-218.205-95.232-57.995 61.997-138.053 95.045-218.205 95.232-41.891 0-84.805-9.216-125.208-29.509-99.421-49.248-169.424-157.696-168.587-287.467 0-68.421 18.525-141.219 56.507-214.296 78.941-150.712 206.755-252.555 416.395-430.264 11.451-9.776 25.413-14.616 39.192-14.616 13.683 0 27.648 4.84 39.285 14.616 209.36 177.709 337.267 279.552 416.395 430.357 37.701 72.984 56.227 145.781 56.227 214.203 0.744 129.771-69.165 238.219-168.68 287.467zM698.181 404.748h-139.635v-135.819c0-25.693-20.853-46.547-46.547-46.547s-46.547 20.853-46.547 46.547v135.819h-139.635c-25.693 0-46.547 20.851-46.547 46.547s20.851 46.547 46.547 46.547l139.635-0.003v143.453c0 25.693 20.853 46.547 46.547 46.547s46.547-20.853 46.547-46.547v-143.453h139.637c25.693 0 46.547-20.851 46.547-46.547s-20.856-46.544-46.549-46.544z" />
<glyph unicode="&#xe014;" glyph-name="shortlist-plus" d="M698.181 499.143h-139.635v143.453c0 25.693-20.851 46.547-46.547 46.547s-46.547-20.853-46.547-46.547v-143.453h-139.635c-25.693 0-46.547-20.851-46.547-46.547s20.851-46.547 46.547-46.547l139.635 0.003v-135.819c0-25.693 20.851-46.547 46.547-46.547s46.547 20.76 46.547 46.547v135.819h139.637c25.693 0 46.547 20.851 46.547 46.547s-20.856 46.544-46.549 46.544zM855.32 937.602c-40.216 20.2-82.944 29.509-125.115 29.509-80.152-0.187-160.211-33.141-218.205-95.232-57.995 61.997-138.053 95.045-218.205 95.232-41.891 0-84.805-9.216-125.208-29.509-99.421-49.339-169.424-157.789-168.587-287.464 0-68.421 18.525-141.219 56.507-214.296 78.941-150.715 206.755-252.557 416.395-430.267 11.451-9.773 25.32-14.616 39.192-14.616 13.683 0 27.648 4.84 39.285 14.616 209.363 177.709 337.267 279.552 416.397 430.36 37.699 72.981 56.224 145.685 56.224 214.203 0.744 129.675-69.165 238.125-168.68 287.464zM885.293 479.22c-64.976-123.995-172.403-214.944-350.395-365.568l-22.805-19.363-21.504 18.248c-178.643 151.085-286.627 242.408-351.419 366.219-30.627 58.832-46.080 116.456-46.080 171.939-0.557 88.157 45.243 168.029 117.483 203.776 25.691 13.032 53.712 19.549 83.035 19.549 56.6-0.093 111.429-24.112 150.437-65.816l68.051-72.704 67.859 72.797c38.915 41.611 93.744 65.536 150.437 65.723 29.325 0 57.251-6.611 83.597-19.923 71.584-35.373 117.384-115.245 116.92-203.96 0-54.832-15.453-112.549-45.616-170.917z" />
<glyph unicode="&#xe015;" glyph-name="shopping" horiz-adv-x="928" d="M918.912 257.852l-93.741 421.608c-4.376 19.643-21.691 33.605-41.709 33.605h-104.539v85.549c0 224.723-427.752 224.723-427.752 0v-85.549h-104.541c-20.013 0-37.421-13.965-41.704-33.512l-93.835-421.701c-24.203-109.195-15.547-187.672 26.531-240.173 40.867-51.013 108.731-74.659 213.549-74.659h427.752c104.915 0 172.685 23.739 213.549 74.659 41.987 52.501 50.643 130.976 26.44 240.173zM336.723 798.618c0 67.677 83.968 85.549 128.28 85.549s128.28-17.875 128.28-85.549v-85.549h-256.651l0.091 85.549zM825.728 71.391c-23.085-28.765-71.029-42.728-146.805-42.728h-427.752c-75.776 0-123.811 13.965-146.805 42.728-24.483 30.347-27.739 86.853-9.68 167.936l86.293 388.187h70.189v-171.101c0-23.645 19.176-42.728 42.728-42.728s42.728 19.176 42.728 42.728v171.101h256.651v-171.101c0-23.645 19.176-42.728 42.728-42.728s42.728 19.176 42.728 42.728v171.101h70.189l86.203-388.096c18.253-81.173 14.992-137.68-9.395-168.027z" />
<glyph unicode="&#xe017;" glyph-name="share-social" d="M853.333 284.444c-43.179 0-82.176-16.555-112.213-43.008l-401.067 200.533c0.256 4.352 1.28 8.619 1.28 13.141s-1.024 8.789-1.365 13.141l401.067 200.533c30.123-26.453 69.12-43.008 112.299-43.008 94.208 0 170.667 76.459 170.667 170.667s-76.459 170.667-170.667 170.667-170.667-76.459-170.667-170.667c0-4.523 1.024-8.789 1.365-13.141l-401.067-200.533c-30.123 26.453-69.12 43.008-112.299 43.008-94.208 0-170.667-76.459-170.667-170.667s76.459-170.667 170.667-170.667c43.179 0 82.176 16.555 112.213 43.008l401.067-200.533c-0.256-4.352-1.28-8.619-1.28-13.141 0-94.208 76.459-170.667 170.667-170.667s170.667 76.459 170.667 170.667-76.459 170.667-170.667 170.667z" />
<glyph unicode="&#xe019;" glyph-name="secure-site" horiz-adv-x="768" d="M597.333 625.778v170.667c0 94.208-76.459 170.667-170.667 170.667h-85.333c-94.208 0-170.667-76.459-170.667-170.667v-170.667c-94.208 0-170.667-76.459-170.667-170.667v-341.333c0-94.208 76.459-170.667 170.667-170.667h426.667c94.208 0 170.667 76.459 170.667 170.667v341.333c0 94.208-76.459 170.667-170.667 170.667zM492.885 151.922c10.496-20.992-0.085-38.144-23.552-38.144h-170.667c-23.467 0-34.048 17.152-23.552 38.144l35.328 70.656c-32.853 23.211-54.443 61.269-54.443 104.533 0 70.656 57.344 128 128 128s128-57.344 128-128c0-43.264-21.589-81.323-54.443-104.533l35.328-70.656zM512 625.778h-256v170.667c0 47.189 38.144 85.333 85.333 85.333h85.333c47.189 0 85.333-38.144 85.333-85.333v-170.667z" />
<glyph unicode="&#xe01a;" glyph-name="search" d="M1014.699 70.599l-173.995 174.080c51.285 74.325 81.493 164.352 81.493 261.461-0.085 254.635-206.421 460.971-461.141 460.971s-461.056-206.336-461.056-460.885c0-254.805 206.336-461.141 461.056-461.141 103.595 0 198.912 34.56 275.883 92.331l172.203-172.373c14.592-14.677 33.707-21.931 52.736-21.931s38.144 7.253 52.736 21.931c29.355 29.184 29.099 76.459 0.085 105.557zM461.056 194.247c-172.203 0.341-311.467 139.605-311.723 311.979 0.256 172.117 139.52 311.296 311.723 311.637 172.203-0.341 311.381-139.605 311.723-311.637-0.256-172.373-139.52-311.637-311.723-311.979zM518.229 743.282c-20.992 6.997-43.691-4.437-50.773-25.429-6.741-20.992 4.437-43.605 25.6-50.688 56.747-19.2 98.816-48.299 115.029-93.184 5.888-16.213 21.248-26.453 37.717-26.453 4.523 0 9.045 0.768 13.568 2.389 20.821 7.765 31.488 30.635 23.893 51.541-28.757 78.080-97.621 119.296-165.035 141.824z" />
<glyph unicode="&#xe01f;" glyph-name="romance" horiz-adv-x="1227" d="M1079.923 671.135c-34.589 16.373-71.736 24.765-110.725 24.765-54.133 0-107.141-16.579-150.941-46.253-0.304 0.307-0.715 0.408-1.227 0.717-10.235 89.747-65.187 168.952-146.027 207.021-34.285 16.576-71.533 25.067-110.627 25.067-54.133-0.2-106.939-16.781-150.837-46.459-44.005 29.675-96.704 46.253-150.941 46.459-38.987 0-76.237-8.493-110.213-24.765-90.875-42.773-149.307-136.92-148.384-239.048 0-55.568 15.349-112.157 45.845-167.723 56.080-101.723 142.037-170.693 272.101-275.176l29.88-24.149c17.504-14.123 39.507-21.899 61.816-21.899 22.205 0 44.005 7.573 61.811 21.899l29.672 24.149c3.581 2.763 6.651 5.424 10.235 8.187 53.112-63.139 122.8-120.141 215.616-194.637l29.368-23.947c17.605-14.123 39.501-21.899 61.912-21.899s44.413 7.776 62.013 21.797l29.779 24.149c130.067 104.483 215.925 173.557 272.307 275.584 30.397 55.875 45.645 111.952 45.645 166.907 0.613 102.741-57.715 196.683-148.077 239.253zM1085.245 318.084c-45.539-82.581-120.344-142.755-244.579-242.733l-22.411-18.011-22 18.011c-90.155 72.349-154.115 123.824-199.96 178.264-17.192 20.365-32.029 41.344-44.411 63.755-0.107 0.104-0.208 0.408-0.411 0.613-21.288 38.989-32.336 77.365-32.336 114.715-0.309 60.584 32.232 113.797 85.549 138.869 19.24 9.312 40.525 13.917 62.424 13.917 21.080 0 41.853-4.195 60.888-12.077 19.136-7.877 36.429-19.341 50.859-34.077 0.307-0.509 0.923-0.616 1.331-0.917 3.683-3.581 7.981-6.243 12.587-8.187 20.877-10.645 48.096-7.981 64.981 9.005 28.653 29.368 69.587 46.051 111.544 46.152 22.205 0 43.288-4.605 63.037-14.019 52.907-24.971 85.347-78.184 85.141-139.173 0-36.637-11.051-75.013-32.235-114.107z" />
<glyph unicode="&#xe020;" glyph-name="reviews" d="M768 967.111c-96.853 0-415.147 0-512 0-141.397 0-256-114.603-256-256 0-65.792 0-275.541 0-341.333 0-141.397 114.603-256 256-256 7.595 0 16.981 0 27.136 0v-122.709c0-14.421 6.485-28.16 17.835-37.291 8.619-6.997 19.285-10.667 30.208-10.667 3.328 0 6.571 0.341 9.899 1.109 8.789 1.792 177.067 39.851 238.251 169.557 79.104 0 150.869 0 188.672 0 141.397 0 256 114.603 256 256 0 65.792 0 275.541 0 341.333 0 141.397-114.603 256-256 256zM443.307 362.439c-45.568-51.712-113.323-77.995-201.301-77.995-28.587 0-51.797 23.125-51.797 51.797 0 28.587 23.211 51.712 51.797 51.712 56.917 0 98.475 14.421 123.477 42.837 10.496 11.947 17.92 27.819 23.893 45.568-16.981-5.803-34.816-9.813-53.76-9.813-91.051 0-164.949 74.069-164.949 164.949s73.899 164.949 164.949 164.949c88.32 0 160-69.888 164.011-157.355 0.085-0.427 0.341-0.683 0.427-1.109 0.341-2.219 0.171-4.096 0.427-6.4 0-0.085 0-0.085 0-0.085 13.909-119.040-5.035-209.749-57.173-269.056zM834.475 362.439c-45.568-51.712-113.323-77.995-201.301-77.995-28.587 0-51.883 23.125-51.883 51.797 0 28.587 23.211 51.712 51.797 51.712 56.917 0 98.475 14.421 123.477 42.837 10.496 11.947 17.92 27.819 23.893 45.568-16.896-5.803-34.731-9.813-53.675-9.813-90.965 0-164.949 74.069-164.949 165.035s73.899 164.864 164.949 164.864c88.32 0 160-69.888 164.011-157.355 0.085-0.427 0.341-0.683 0.427-1.109 0.341-2.219 0.171-4.096 0.427-6.4 0-0.085 0-0.085 0-0.085 13.909-119.040-5.035-209.749-57.173-269.056z" />
<glyph unicode="&#xe023;" glyph-name="Receipt" d="M853.333 583.111c0 11.264-4.523 22.101-12.459 30.123l-340.053 341.333c-7.936 8.021-18.859 12.544-30.123 12.544h-342.699c-23.552 0-42.667-19.115-42.667-42.667v-933.376c0-12.459 4.864-23.467 14.592-33.365 9.813-9.643 20.907-14.592 33.365-14.592 32 0 62.208 16.043 90.709 47.957 10.667 8.875 17.749 13.312 21.333 13.312s10.667-4.437 21.333-13.312c28.416-31.915 59.051-47.957 91.989-47.957 32.853 0 62.635 16.043 89.259 47.957 10.667 8.875 17.749 13.312 21.333 13.312s10.667-4.437 21.333-13.312c28.587-31.915 58.795-47.957 90.709-47.957s62.208 16.043 90.624 47.957c10.667 8.875 17.749 13.312 21.248 13.312 3.584 0 10.752-4.437 21.419-13.312 28.501-31.915 58.709-47.957 90.795-47.957 12.459 0 23.467 4.949 33.28 14.677 9.899 9.813 14.763 20.907 14.763 33.365v591.957zM512 822.471l195.925-196.693h-195.925v196.693zM693.248 100.466c-32 0-62.208-15.104-90.624-45.312-8.875-10.667-15.616-16.043-19.883-16.043-4.523 0-12.032 5.291-22.699 16.043-28.501 30.208-58.709 45.312-90.709 45.312s-62.208-15.104-90.624-45.312c-8.875-10.667-15.616-16.043-19.968-16.043-4.523 0-12.032 5.291-22.699 16.043-28.416 30.208-58.624 45.312-90.624 45.312-30.293 0-55.125-7.168-74.667-21.333v802.645h256v-298.667c0-23.552 19.115-42.667 42.667-42.667h298.667v-461.312c-19.627 14.165-44.544 21.333-74.837 21.333zM682.667 455.111h-426.667c-23.552 0-42.667-19.115-42.667-42.667s19.115-42.667 42.667-42.667h426.667c23.552 0 42.667 19.115 42.667 42.667s-19.115 42.667-42.667 42.667zM682.667 284.444h-426.667c-23.552 0-42.667-19.115-42.667-42.667s19.115-42.667 42.667-42.667h426.667c23.552 0 42.667 19.115 42.667 42.667s-19.115 42.667-42.667 42.667z" />
<glyph unicode="&#xe027;" glyph-name="pool" d="M47.957 244.423v0c28.501-0.939 31.488-5.12 51.627-16.896 18.603-12.544 54.187-33.024 103.083-31.829 48.725-1.195 84.395 19.285 102.827 31.829 20.139 11.947 23.125 15.957 51.627 16.981 28.245-1.109 31.403-5.12 51.541-16.981 18.517-12.544 54.101-33.024 102.997-31.829 48.725-1.195 84.395 19.285 102.997 31.829 20.053 11.776 23.211 15.957 51.712 16.981 28.501-1.109 31.659-5.291 51.797-17.067 18.517-12.459 54.187-32.939 102.997-31.744 1.28 0 2.475 0 3.755 0 46.933 0 81.237 19.541 99.328 31.744 20.053 11.861 23.125 16.043 51.712 17.067 26.453 0 47.957 21.419 47.957 47.957s-21.589 47.957-47.957 47.957c-48.811 1.109-84.48-19.2-103.168-31.659-17.237-10.325-22.955-14.507-42.155-16.213h-18.944c-19.371 1.621-24.917 5.803-42.325 16.128-18.517 12.544-54.101 32.768-102.997 31.744-48.811 1.024-84.48-19.2-102.997-31.829-17.323-10.24-22.955-14.421-42.155-16.128h-19.2c-19.2 1.707-24.661 5.803-41.984 16.128-18.688 12.629-54.101 32.853-102.827 31.829-48.896 1.024-84.48-19.285-102.997-31.829-17.408-10.325-22.955-14.421-41.984-16.128h-19.115c-19.285 1.707-24.917 5.888-42.24 16.128-18.517 12.629-54.016 32.853-102.912 31.829-26.624 0-47.957-21.504-47.957-47.957s21.333-48.043 47.957-48.043zM976.043 87.666c-48.811 1.28-84.48-19.115-103.168-31.573-17.237-10.325-22.955-14.507-42.155-16.299h-19.029c-19.371 1.792-24.917 5.973-42.325 16.299-18.517 12.459-54.101 32.853-102.997 31.744-48.725 1.109-84.395-19.285-102.997-31.915-17.323-10.155-22.955-14.336-42.155-16.128h-19.2c-19.2 1.792-24.661 5.888-41.984 16.128-18.688 12.629-54.101 33.024-102.827 31.915-48.896 1.109-84.48-19.285-102.997-31.915-17.323-10.24-22.955-14.336-41.899-16.128h-19.2c-19.285 1.792-24.917 5.973-42.24 16.128-18.517 12.629-54.016 33.024-102.827 31.915-26.709 0-48.043-21.504-48.043-48.043s21.333-47.957 47.957-47.957v0.171c28.416-1.109 31.403-5.291 51.541-16.981 18.688-12.629 54.272-33.024 103.168-31.915 48.725-1.109 84.395 19.285 102.827 31.829 20.139 11.947 23.125 15.957 51.627 16.981 28.245-1.109 31.403-5.12 51.541-16.981 18.517-12.544 54.101-32.939 102.997-31.829 48.725-1.109 84.395 19.285 102.997 31.829 20.053 11.776 23.125 15.957 51.627 16.981 28.501-1.109 31.659-5.291 51.797-17.067 18.603-12.459 54.272-32.853 103.083-31.744 1.28 0 2.475 0 3.755 0 46.933 0 81.237 19.541 99.328 31.744 20.053 11.861 23.125 16.043 51.712 17.067 26.453 0 47.957 21.504 47.957 47.872 0.085 26.539-21.504 47.872-47.872 47.872zM728.747 800.199c0-76.348 61.892-138.24 138.24-138.24s138.24 61.892 138.24 138.24c0 76.348-61.892 138.24-138.24 138.24s-138.24-61.892-138.24-138.24zM459.52 647.964l-164.949-165.035c17.237 6.571 38.229 11.349 62.635 10.752 48.725 1.195 84.139-19.2 102.827-31.744 17.323-10.24 22.869-14.507 41.984-16.213h19.2c19.2 1.707 24.747 5.973 42.155 16.213 18.603 12.459 54.272 32.939 102.997 31.744 41.984 1.024 73.301-13.739 93.269-25.771 16.555 54.699 6.997 115.541-29.611 162.816-0.853 1.195-1.792 2.475-2.816 3.584-0.853 1.195-1.877 2.389-2.901 3.499-0.939 1.195-1.963 2.304-3.072 3.584-1.024 0.939-2.048 2.219-3.072 3.243-1.024 1.195-2.133 2.304-3.243 3.413-1.109 1.195-2.219 2.133-3.413 3.243l-3.328 3.157-3.499 2.987c-1.109 1.024-2.389 2.048-3.499 2.987l-3.499 2.731c-28.501 22.016-62.037 34.133-96 36.864l-54.016 53.931 75.52 75.52c25.003 25.088 25.003 65.621 0 90.539-25.003 25.088-65.536 25.088-90.539 0l-120.832-120.747c-11.947-11.947-18.688-28.331-18.688-45.312 0-16.811 6.656-33.195 18.688-45.227l54.528-54.357c-2.133-1.877-4.096-3.755-6.059-5.632l-0.768-0.768z" />
<glyph unicode="&#xe02a;" glyph-name="pet-friendly" horiz-adv-x="1115" d="M1104.376 731.415l-130.2 130.107c-37.573 37.667-41.013 65.099-41.013 65.099v-0.093c0 17.299-11.069 32.549-27.435 37.944-16.275 5.581-34.411-0.187-44.549-14.133-14.504-19.44-28.736-37.667-42.128-54.779-0.931-1.208-1.861-2.045-2.699-3.253-202.552-253.893-305.224-253.333-308.664-254.821l-326.152 0.093c-1.208 0-2.699 0-4.837-0.187-1.952 0-4.277-0.28-6.605-0.467-0.28 0-0.373 0-0.651-0.093-11.901-1.115-28.083-4.461-45.939-12.368-14.509 21.763-36.363 68.357-43.896 159.403-1.765 21.949-21.203 37.76-43.059 36.549-21.856-1.861-38.224-21.205-36.456-43.061 9.021-111.227 37.944-172.421 61.381-204.413-1.397-1.952-2.699-4.091-4.093-6.323-1.768-2.416-3.347-4.744-4.931-7.347-6.413-10.696-12.088-23.064-17.109-36.736-1.117-3.347-2.419-6.509-3.627-9.856-4.28-13.485-7.816-28.739-10.509-45.477-0.651-3.72-1.027-7.72-1.584-11.44-2.139-17.485-3.72-36.085-3.72-56.915v-415.243c0-22.136 17.949-39.995 39.899-39.995 22.040 0 39.989 17.856 39.989 39.989v271.003c35.061 28.923 110.389 78.029 186.931 78.029 0.093 0 0.187 0 0.373 0 30.971-1.395 75.517-22.32 122.387-44.547 74.773-35.435 167.957-79.424 274.536-79.424 31.992 0 63.613 5.581 94.955 13.579v-238.547c0-22.040 17.763-39.989 39.805-39.989 22.133 0 39.989 17.856 39.989 39.989l-0.003 538.656c0 16.181 2.139 29.573 5.765 41.387 1.581 4.741 4.28 7.904 6.235 11.811 3.253 6.232 6.229 12.835 10.971 17.205 5.768 5.952 12.277 10.88 20.461 14.229 2.139 0.931 4.557 1.395 6.696 2.139 8.371 2.419 17.485 4.277 27.621 4.464 6.509 0.093 11.811 0 13.483 0h80.261c10.696 0 20.925 4.091 28.363 11.624l49.757 49.661c15.437 15.627 15.437 40.92 0 56.547z" />
<glyph unicode="&#xe02f;" glyph-name="parking" d="M512 625.778h-85.333v-170.667h85.333c47.104 0 85.333 38.229 85.333 85.333s-38.229 85.333-85.333 85.333zM810.667 967.111h-597.333c-117.845 0-213.333-95.488-213.333-213.333v-597.333c0-117.845 95.488-213.333 213.333-213.333h597.333c117.845 0 213.333 95.488 213.333 213.333v597.333c0 117.845-95.488 213.333-213.333 213.333zM512 284.444h-85.333v-128c0-47.189-38.144-85.333-85.333-85.333s-85.333 38.144-85.333 85.333v554.667c0 47.189 38.144 85.333 85.333 85.333h170.667c141.141 0 256-114.859 256-256s-114.859-256-256-256z" />
<glyph unicode="&#xe030;" glyph-name="others" horiz-adv-x="464" d="M464.355 391.81v0.557c-0.464 3.072-0.557 6.331-0.931 9.403l-0.373 1.675-0.277 3.165-0.373 2.328-0.467 2.512-0.464 2.795-0.464 1.955-0.747 3.165-0.277 1.768-0.931 3.352-0.28 1.211c-21.693 79.965-100.168 141.312-197.352 151.739-1.864 0.184-3.725 0.371-5.589 0.557-2.048 0.093-4 0.28-5.864 0.373-1.955 0.184-4.093 0.28-6.051 0.464-1.955 0-3.816 0.093-5.773 0.093-2.139 0.187-4.187 0.187-6.139 0.187s-4.003 0-5.957-0.187l-5.96-0.093-5.957-0.464c-1.957-0.093-3.912-0.28-5.96-0.373l-5.587-0.557c-97.187-10.427-175.475-71.773-197.259-151.739l-0.28-1.211-0.931-3.352-0.371-1.768-0.747-3.165-0.371-1.955-0.56-2.795-0.464-2.512-0.373-2.328-0.373-3.165-0.277-1.675c-0.28-3.072-0.467-6.237-0.931-9.403l-0.003-0.557c-0.184-3.259-0.277-6.517-0.371-9.96v-438.739h465.453v437.621c0 3.723-0.184 7.539-0.371 11.077zM76.816 827.474c0.001-77.12 69.478-139.637 155.183-139.637s155.183 62.518 155.183 139.639c0 0 0 0.001 0 0.001 0 77.12-69.478 139.638-155.183 139.638s-155.183-62.518-155.183-139.639z" />
<glyph unicode="&#xe033;" glyph-name="neighbourhood" d="M827.051 269.852c-71.936 0-137.131-45.909-166.315-117.248-5.547-13.568-16.555-23.893-29.952-27.989-13.483-4.096-27.733-1.621-39.253 6.827-17.749 13.141-38.656 20.139-60.331 20.139-59.136 0-107.435-51.797-107.435-115.627 0-18.517 14.592-65.451 26.624-92.843h125.355c2.389 0 11.349 0 13.739 0h378.027c19.627 36.523 41.557 98.987 41.557 130.816 0 108.117-81.664 195.925-182.016 195.925zM977.237 967.111h-387.755c-25.856 0-46.677-22.528-46.677-50.347v-316.843h-206.933l-118.187 290.901c-14.848 36.523-70.656 36.523-85.504 0l-128.341-315.904c-3.072-7.765-4.437-16.128-3.669-24.405 0-0.256-0.171-0.597-0.171-0.853v-556.373c0-27.733 20.821-50.176 46.592-50.176h256.597c2.816 0 13.227 0 16.043 0h30.379c-10.837 32.427-19.285 67.584-19.285 92.843 0 119.211 90.112 216.149 200.875 216.149 23.211 0 46.165-4.352 67.755-12.629 50.603 80.896 135.68 130.987 228.181 130.987 77.056 0 146.773-34.56 196.864-89.856v636.16c0 27.819-20.992 50.347-46.763 50.347zM174.933 432.924c-52.224 0-94.72 42.411-94.72 94.635 0 52.48 42.496 94.805 94.72 94.805 52.395 0 94.635-42.325 94.635-94.805 0-52.224-42.24-94.635-94.635-94.635zM754.005 413.127h-117.333v118.187h117.333v-118.187zM754.005 584.476h-117.333v118.272h117.333v-118.272zM754.005 755.996h-117.333v118.272h117.333v-118.272zM930.133 413.127h-117.504v118.187h117.504v-118.187zM930.133 584.476h-117.504v118.272h117.504v-118.272zM930.133 755.996h-117.504v118.272h117.504v-118.272z" />
<glyph unicode="&#xe034;" glyph-name="mobile" horiz-adv-x="680" d="M512.52 967.111h-342.189c-86.355 0-170.664-84.224-170.664-170.667v-682.667c0-86.187 84.309-170.667 170.667-170.667 322.304 0 19.029 0 341.333 0 86.357 0 170.667 84.48 170.667 170.667v682.667c0 86.357-83.541 170.667-169.813 170.667zM345.949 7.794c-58.624 0-106.069 47.531-106.069 105.984-0.085 58.539 47.443 106.155 106.069 105.984 58.539 0.171 106.069-47.275 106.069-105.984 0.085-58.709-47.448-106.155-106.069-105.984zM597 369.778c0-43.52-41.899-85.333-85.333-85.333h-341.336c-43.347 0-85.331 41.813-85.331 85.333l-6.144 426.581c0 43.435 48.128 85.419 91.475 85.419h341.333c43.435 0 85.333-41.899 85.333-85.333l0.003-426.667z" />
<glyph unicode="&#xe035;" glyph-name="hcom-burger" horiz-adv-x="1117" d="M0 865.921c0-49.524 24.39-89.553 103.703-89.553h909.591c79.407-0.093 103.796 40.029 103.796 89.553 0 49.431-24.39 89.553-103.61 89.553h-909.777c-79.313 0-103.703-40.122-103.703-89.553zM0 455.763c0-49.524 24.39-89.647 103.703-89.647h909.591c79.407 0 103.796 40.122 103.796 89.647 0 49.524-24.39 89.553-103.61 89.553h-909.777c-79.313 0-103.703-40.029-103.703-89.553zM0 45.697c0-49.617 24.39-89.647 103.703-89.647h909.591c79.5 0 103.703 40.029 103.703 89.647 0 49.431-24.483 89.46-103.703 89.46h-909.591c-79.313 0-103.703-40.029-103.703-89.46z" />
<glyph unicode="&#xe039;" glyph-name="landmarks" d="M938.667 113.778h-853.333c-47.189 0-85.333-38.144-85.333-85.333s38.144-85.333 85.333-85.333h853.333c47.189 0 85.333 38.144 85.333 85.333s-38.144 85.333-85.333 85.333zM170.667 412.444v-170.667c0-47.189 38.144-85.333 85.333-85.333s85.333 38.144 85.333 85.333v170.667c0 47.189-38.144 85.333-85.333 85.333s-85.333-38.144-85.333-85.333zM426.667 412.444v-170.667c0-47.189 38.144-85.333 85.333-85.333s85.333 38.144 85.333 85.333v170.667c0 47.189-38.144 85.333-85.333 85.333s-85.333-38.144-85.333-85.333zM85.333 540.444h853.333c47.189 0 85.333 38.144 85.333 85.333 0 30.976-17.323 56.917-41.984 71.851h2.645l-420.352 251.221v-1.365c-14.592 11.605-32.256 19.627-52.309 19.627s-37.717-8.021-52.309-19.541v1.28l-420.352-251.221h2.645c-24.661-14.933-41.984-40.875-41.984-71.851 0-47.189 38.144-85.333 85.333-85.333zM682.667 412.444v-170.667c0-47.189 38.144-85.333 85.333-85.333s85.333 38.144 85.333 85.333v170.667c0 47.189-38.144 85.333-85.333 85.333s-85.333-38.144-85.333-85.333z" />
<glyph unicode="&#xe03a;" glyph-name="internet" d="M577.877 463.986l-41.216-41.301c-6.571-6.571-15.36-10.24-24.747-10.24-9.301 0-18.261 3.669-24.747 10.24l-41.216 41.301c-13.483 13.653-13.483 35.755 0.171 49.323 36.267 36.437 95.488 36.437 131.84 0 3.328-3.243 5.803-7.083 7.68-11.264 1.707-4.096 2.219-8.448 2.389-12.544 0-0.341 0.171-0.597 0.171-0.853 0-1.109-0.512-2.133-0.597-3.243-0.341-3.328-0.768-6.827-2.048-10.069-1.707-4.181-4.267-8.107-7.68-11.349zM676.864 562.887c-6.741-6.741-15.701-10.24-24.747-10.24-8.875 0-17.835 3.499-24.661 10.24-30.891 30.72-71.765 47.787-115.456 47.787 0 0 0 0-0.085 0-43.605 0-84.565-17.067-115.456-47.872-13.653-13.739-35.84-13.739-49.408 0-13.739 13.568-13.739 35.755 0 49.493 44.117 43.947 102.485 68.181 164.864 68.181 0.085 0 0.085 0 0.085 0 62.293 0 120.747-24.235 164.864-68.181 13.739-13.653 13.739-35.84 0-49.408zM775.851 661.788c-6.912-6.827-15.787-10.325-24.661-10.325-9.045 0-18.005 3.499-24.747 10.24-118.272 118.357-310.613 118.357-428.885 0-13.653-13.483-35.84-13.568-49.493 0.085-13.739 13.739-13.739 35.755 0 49.579 145.493 145.323 382.208 145.323 527.787 0 13.739-13.824 13.739-35.84 0-49.579zM782.507 285.98c-0.256 0-0.683 0-1.024 0 81.664 7.68 157.184 87.040 157.184 169.131v341.333c0 86.357-83.541 170.667-169.813 170.667h-512.853c-86.357 0-170.667-84.224-170.667-170.667v-341.333c0-82.176 76.288-161.451 158.037-169.131-0.597 0-1.365 0-1.792 0-81.579 0-241.579-128.427-241.579-217.856s87.211-125.013 189.44-125.013 322.56 0 322.56 0 220.416 0 322.56 0 189.44 35.584 189.44 125.013-160 217.856-241.493 217.856zM170.667 455.196v341.163c0 43.435 41.984 85.419 85.333 85.419h512c43.435 0 85.333-41.899 85.333-85.333v-341.333c0-43.435-41.899-85.333-85.333-85.333h-512c-43.349 0-85.333 41.984-85.333 85.419z" />
<glyph unicode="&#xe03b;" glyph-name="information" d="M848.043 967.111h-672.085c-97.024 0-175.957-79.104-175.957-176.299v-671.317c0-97.28 78.933-176.384 175.957-176.384h672c97.109 0 176.043 79.104 176.043 176.299v671.403c0 97.195-78.933 176.299-175.957 176.299zM620.032 197.575c0-66.389-41.728-128.256-108.032-128.256s-108.032 61.867-108.032 128.256v213.675c0 66.475 41.728 128.256 108.032 128.256s108.032-61.781 108.032-128.256v-213.675zM512 601.202c-60.331 0-109.141 48.896-109.141 109.397s48.811 109.397 109.141 109.397 109.141-48.896 109.141-109.397-48.811-109.397-109.141-109.397z" />
<glyph unicode="&#xe03d;" glyph-name="hotel" horiz-adv-x="768" d="M597.333 796.444h-426.667c-86.272 0-170.667-84.309-170.667-170.667v-512c0-86.357 84.395-170.667 170.667-170.667h128v213.333h170.667v-213.333h128c86.357 0 170.667 84.309 170.667 170.667v512c0 86.357-84.309 170.667-170.667 170.667zM149.333 229.746c-41.899 0-76.032 34.048-76.032 76.032s34.133 76.032 76.032 76.032 76.032-34.133 76.032-76.032-34.133-76.032-76.032-76.032zM149.333 400.412c-41.899 0-76.032 34.133-76.032 76.032s34.133 76.032 76.032 76.032 76.032-34.133 76.032-76.032-34.133-76.032-76.032-76.032zM149.333 571.079c-41.899 0-76.032 34.133-76.032 76.032s34.133 76.032 76.032 76.032 76.032-34.133 76.032-76.032-34.133-76.032-76.032-76.032zM384 229.746c-41.899 0-76.032 34.048-76.032 76.032s34.133 76.032 76.032 76.032 76.032-34.133 76.032-76.032-34.133-76.032-76.032-76.032zM384 400.412c-41.899 0-76.032 34.133-76.032 76.032s34.133 76.032 76.032 76.032 76.032-34.133 76.032-76.032-34.133-76.032-76.032-76.032zM384 571.079c-41.899 0-76.032 34.133-76.032 76.032s34.133 76.032 76.032 76.032 76.032-34.133 76.032-76.032-34.133-76.032-76.032-76.032zM618.667 229.746c-41.899 0-76.032 34.048-76.032 76.032s34.133 76.032 76.032 76.032 76.032-34.133 76.032-76.032-34.133-76.032-76.032-76.032zM618.667 400.412c-41.899 0-76.032 34.133-76.032 76.032s34.133 76.032 76.032 76.032 76.032-34.133 76.032-76.032-34.133-76.032-76.032-76.032zM618.667 571.079c-41.899 0-76.032 34.133-76.032 76.032s34.133 76.032 76.032 76.032 76.032-34.133 76.032-76.032-34.133-76.032-76.032-76.032zM341.333 113.778h85.333v-170.667h-85.333v170.667zM512 967.111h-256c-47.189 0-85.333-38.144-85.333-85.333h426.667c0 47.189-38.144 85.333-85.333 85.333z" />
<glyph unicode="&#xe03f;" glyph-name="golf" d="M989.781 965.148c-25.088 7.509-51.797-6.912-59.221-32.171l-257.024-870.741-278.272 159.061c-15.872 9.216-35.84 8.277-50.859-2.219-15.275-10.581-22.869-28.843-19.712-47.019l32-189.184c3.755-23.040 23.552-39.765 46.933-39.765h299.008c12.8 0.171 24.491 5.291 33.024 13.653h0.085c0 0.085 0.171 0.171 0.171 0.171v0.085l0.085 0.085c5.888 5.717 10.155 13.141 12.288 21.248l273.749 927.488c7.424 25.259-6.997 51.797-32.256 59.307zM512 711.111c0 141.056-114.773 256-255.744 256-141.312 0-256.256-114.944-256.256-256 0-141.227 114.944-256 256.256-256 140.971 0 255.744 114.773 255.744 256zM256.256 548.978c-89.515 0-162.219 72.704-162.219 162.133 0 89.259 72.789 161.963 162.219 161.963 89.173 0 161.792-72.789 161.792-161.963-0.085-89.429-72.619-162.133-161.792-162.133z" />
<glyph unicode="&#xe042;" glyph-name="fitness" horiz-adv-x="1363" d="M966.168 966.61c-31.373 0-56.835-25.461-56.835-56.832v-341h-454.667v341c0 31.371-25.461 56.832-56.835 56.832s-56.832-25.461-56.832-56.832v-909.333c0-31.371 25.461-56.835 56.832-56.835s56.835 25.464 56.835 56.835v341h454.667v-341c0-31.371 25.461-56.835 56.835-56.835s56.832 25.464 56.832 56.835v909.333c0 31.371-25.461 56.832-56.832 56.832zM170.501 852.946c-31.373 0-56.835-25.461-56.835-56.835v-284.168c0 31.371-25.461 56.832-56.832 56.832s-56.835-25.459-56.835-56.832v-113.667c0-31.371 25.461-56.832 56.832-56.832s56.835 25.461 56.835 56.835v-284.165c0-31.373 25.461-56.835 56.835-56.835s56.832 25.461 56.832 56.832v682c0 31.373-25.461 56.835-56.832 56.835zM1307.165 568.778c-31.371 0-56.832-25.461-56.832-56.835v284.168c0 31.373-25.461 56.835-56.835 56.835s-56.832-25.461-56.832-56.835v-682c0-31.371 25.461-56.832 56.832-56.832s56.835 25.461 56.835 56.832v284.168c0-31.371 25.461-56.832 56.832-56.832s56.835 25.459 56.835 56.832v113.664c0 31.373-25.461 56.835-56.835 56.835z" />
<glyph unicode="&#xe046;" glyph-name="faq" d="M512 967.111c-282.795 0-512-229.205-512-512 0-282.709 229.205-512 512-512 282.709 0 512 229.291 512 512 0 282.795-229.291 512-512 512zM584.021 96.37c-37.461-37.461-98.304-37.461-135.851 0s-37.461 98.219 0 135.765 98.304 37.461 135.851 0c37.376-37.547 37.376-98.304 0-135.765zM612.352 488.135c-25.515-30.293-29.952-49.237-28.757-68.693l0.085-19.456c0-35.328-28.587-64-64-64-35.328 0-64 28.672-64 64v15.787c-3.243 52.992 15.445 103.424 58.88 154.88 35.84 42.667 50.944 64.939 50.944 92.331 0 40.363-34.816 48.811-64.171 48.811-30.208 0-59.563-9.557-72.96-19.2-28.928-20.309-68.864-13.312-89.259 15.701-20.309 28.843-13.397 68.693 15.531 89.088 37.205 26.027 93.355 42.411 146.688 42.411 132.011 0 192.171-91.648 192.171-176.811 0-78.592-44.971-132.011-81.152-174.848z" />
<glyph unicode="&#xe047;" glyph-name="family" d="M1018.981 294.444v0.616c-0.307 4.096-0.613 8.091-0.923 12.083l-0.304 2.459-0.411 3.888-0.512 2.971-0.512 3.483-0.512 3.685-0.512 2.459-0.821 4.403-0.512 2.048-0.715 4.507-0.411 1.637c-19.352 83.048-78.64 150.12-156.467 181.352 53.349 32.667 89.499 91.035 89.499 158.107 0 102.709-83.355 186.061-185.856 186.061-102.709 0-185.957-83.355-185.957-186.061 0-66.971 36.043-125.339 89.395-158.003-65.947-26.525-118.48-78.749-144.693-144.693-0.101 2.867-0.101 5.528-0.307 8.296v0.512c-0.203 4.197-0.512 8.192-1.024 12.288l0.003 2.352-0.512 3.789-0.512 3.072-0.512 3.584-0.619 3.587-0.405 2.456-0.72 4.197-0.613 2.253-0.819 4.507-0.515 1.637c-18.944 81.819-76.696 148.379-152.88 180.021 51.712 33.072 86.117 90.621 86.117 156.464 0 102.709-83.147 185.957-185.856 185.957-102.605 0-185.856-83.251-185.856-185.957 0-65.843 34.509-123.392 86.219-156.363-76.187-31.845-134.144-98.203-153.088-180.021l-0.509-1.739-0.819-4.507-0.613-2.253-0.821-4.197-0.411-2.456-0.512-3.587-0.512-3.48-0.512-3.072-0.411-3.893-0.203-2.352c-0.411-4.096-0.819-8.091-1.024-12.288v-0.512c-0.309-4.304-0.512-8.603-0.512-13.211v-389.531c0-5.019 0.101-9.829 0.512-14.539v-0.715c0.203-3.893 0.613-8.091 1.024-12.187l0.203-2.355 0.512-3.893 0.512-2.971v-1.229h334.235c34.304 45.157 85.504 76.8 144.693 84.275l5.323 0.717c1.845 0.101 3.685 0.307 5.632 0.512l5.427 0.307 5.429 0.205c1.845 0 3.685 0 5.632 0 1.845 0 3.787 0 5.531 0 1.947-0.101 3.787-0.101 5.531-0.203 1.947-0.101 3.893-0.203 5.632-0.307 1.635-0.208 3.581-0.413 5.32-0.515 1.947-0.203 3.685-0.512 5.427-0.715 59.088-7.477 110.392-39.12 144.589-84.277h335.461l0.208 1.227 0.512 2.971 0.512 3.893 0.307 2.355c0.307 4.096 0.613 8.293 0.923 12.187l-0.003 0.819c0.203 4.299 0.512 8.603 0.512 13.107l0.003 50.893c0 112.843 0 136.293 0 249.139-0.104 5.016-0.411 10.035-0.616 14.744zM509.131 43.564c-91.443 0-165.477 74.139-165.477 165.477s74.139 165.477 165.477 165.477c91.237 0 165.477-74.139 165.477-165.477s-74.339-165.477-165.477-165.477z" />
<glyph unicode="&#xe04a;" glyph-name="email" horiz-adv-x="1363" d="M1136.667 966.61h-909.333c-129.355 0-227.333-97.979-227.333-227.333v-568.333c0-129.24 97.979-227.333 227.333-227.333h909.333c129.355 0 227.333 105.141 227.333 227.333v568.333c0 136.288-97.981 227.333-227.333 227.333zM227.333 852.946h909.333c34.555 0 56.605-31.6 76.157-57.061l-490.813-490.699c-21.371-21.371-58.539-21.709-80.021-0.227l-490.813 490.925c19.552 25.461 41.605 57.061 76.157 57.061zM1250.333 170.946c0-58.765-54.899-113.667-113.667-113.667h-902.288c-58.651 0-120.712 54.899-120.712 113.667v454.664l437.957-410.904c34.781-34.896 81.045-54.107 130.261-54.107s95.595 19.099 130.491 54.109l437.957 410.901v-454.664z" />
<glyph unicode="&#xe04b;" glyph-name="edit-booking" d="M318.293 440.775c-0.683-0.939-0.939-1.877-1.536-2.731-1.792-2.987-2.987-6.144-3.584-9.472-0.171-0.597-0.683-1.195-0.768-1.963l-18.603-190.123c0-0.085-0.171-0.256-0.171-0.427l-8.277-86.016-0.683-6.485v-0.171c-1.024-8.789 2.56-17.493 9.387-23.125 4.949-4.352 11.179-6.485 17.664-6.485 2.219 0 4.608 0.256 6.997 0.939l89.941 24.064c0.341 0.085 0.512 0.341 0.939 0.427l183.979 49.835c6.571 1.877 11.52 6.656 15.104 12.288l409.088 483.499c4.437 5.547 6.912 12.544 6.059 19.712-0.512 7.083-3.84 13.824-9.301 18.432l-246.357 208.299c-11.435 9.643-28.501 8.363-38.059-3.243l-411.307-486.485c-0.256-0.256-0.341-0.597-0.512-0.768zM753.92 872.476l204.8-173.227-57.173-67.584-204.715 173.227 57.088 67.584zM361.301 369.948l168.192-142.080-121.344-32.939-59.051 49.92 12.203 125.099zM810.667-56.889h-597.333c-117.589 0-213.333 95.659-213.333 213.333v426.667c0 117.675 95.744 213.333 213.333 213.333h213.333c23.552 0 42.667-19.115 42.667-42.667s-19.115-42.667-42.667-42.667h-213.333c-70.571 0-128-57.429-128-128v-426.667c0-70.571 57.429-128 128-128h597.333c70.571 0 128 57.429 128 128v341.333c0 23.552 19.115 42.667 42.667 42.667s42.667-19.115 42.667-42.667v-341.333c0-117.675-95.659-213.333-213.333-213.333zM298.667 540.444c-23.552 0-42.667 19.115-42.667 42.667v341.333c0 23.552 19.115 42.667 42.667 42.667s42.667-19.115 42.667-42.667v-341.333c0-23.552-19.115-42.667-42.667-42.667z" />
<glyph unicode="&#xe04c;" glyph-name="drr" d="M1000.875 459.719l-1.451 1.365-468.309 468.395c-23.296 22.699-52.821 35.243-82.944 37.632l-210.347-0.085c-34.133 0-68.437-13.141-94.635-39.339l-103.936-104.021c-26.112-26.027-39.253-60.16-39.253-94.549v-209.579c2.389-30.891 15.36-61.099 38.997-84.651l468.395-468.565c30.976-30.891 81.152-30.891 112.128 0l1.365 1.536 379.989 379.819c30.976 30.891 30.805 80.981 0 112.043zM380.416 586.695c-52.395-52.309-137.216-52.309-189.781 0-52.309 52.48-52.309 137.301 0 189.611 52.48 52.48 137.301 52.48 189.781 0 52.395-52.309 52.395-137.131 0-189.611z" />
<glyph unicode="&#xe04d;" glyph-name="drr-rtl" d="M23.125 459.719l1.451 1.365 468.309 468.395c23.296 22.699 52.821 35.243 82.944 37.632l210.347-0.085c34.133 0 68.437-13.141 94.635-39.339l103.936-104.021c26.112-26.027 39.253-60.16 39.253-94.549v-209.579c-2.389-30.891-15.36-61.099-38.997-84.651l-468.395-468.565c-30.976-30.891-81.152-30.891-112.128 0l-1.365 1.536-379.989 379.819c-30.976 30.891-30.805 80.981 0 112.043zM643.584 586.695c52.395-52.309 137.216-52.309 189.781 0 52.309 52.48 52.309 137.301 0 189.611-52.48 52.48-137.301 52.48-189.781 0-52.395-52.309-52.395-137.131 0-189.611z" />
<glyph unicode="&#xe04e;" glyph-name="dining" horiz-adv-x="851" d="M426 920.092c0 25.088-17.92 45.483-42.581 45.483-25.003 0-42.496-20.395-42.496-45.483h-0.253v-256.512h-85.336v256.512c0 25.173-15.531 45.483-40.363 45.483-24.917-0.085-44.971-20.309-44.971-45.483v-256.512h-85.331v256.512c0 25.088-20.139 45.483-44.885 45.483-24.92-0.085-40.451-20.395-40.451-45.483 0 0 0-310.187 0-311.381 1.195-57.173 42.072-95.915 80.64-121.941 12.715-8.107 32-14.933 45.656-20.992v-431.701c0-50.091 40.275-90.965 90.024-90.965s90.112 40.875 90.112 90.965v431.531c13.909 5.973 32.939 12.971 45.909 21.248 38.659 25.941 73.045 64.683 74.325 121.856 0 2.133 0 311.381 0 311.381zM761.189 967.111c-12.547 0-24.235-2.475-35.075-6.997-35.925-10.837-63.915-37.547-81.493-66.901-68.776-114.859-70.824-312.747-72.275-407.552 0-30.208 0.768-49.152 0.853-49.664 0.427-11.435 5.205-22.016 13.312-30.293l95.488-82.603v-282.709c0-50.091 34.731-90.965 85.333-90.965 50.517 0 85.333 40.875 85.333 90.965v835.755c0 50.261-40.96 90.965-91.477 90.965z" />
<glyph unicode="&#xe04f;" glyph-name="delete" d="M512 967.111c-282.795 0-512-229.205-512-512 0-282.709 229.205-512 512-512 282.709 0 512 229.291 512 512 0 282.795-229.291 512-512 512zM776.192 281.458c25.003-25.003 25.003-65.621 0-90.539-12.459-12.544-28.843-18.773-45.227-18.773-16.299 0-32.768 6.144-45.227 18.773l-173.739 173.653-173.653-173.653c-12.459-12.544-28.928-18.773-45.227-18.773-16.384 0-32.768 6.144-45.227 18.773-25.003 24.917-25.003 65.451 0 90.539l173.653 173.568-173.739 173.739c-25.003 25.003-25.003 65.536 0 90.539s65.536 25.003 90.539 0l173.653-173.739 173.653 173.739c25.003 25.003 65.536 25.003 90.539 0s25.003-65.536 0-90.539l-173.653-173.653 173.653-173.653z" />
<glyph unicode="&#xe050;" glyph-name="default-hotel" d="M917.333 711.111h-640c-58.795 0-106.667-47.872-106.667-106.667v-469.333c0-58.795 47.872-106.667 106.667-106.667h640c58.795 0 106.667 47.872 106.667 106.667v469.333c0 58.795-47.872 106.667-106.667 106.667zM256 135.111v469.333c0 11.776 9.557 21.333 21.333 21.333h640c11.776 0 21.333-9.557 21.333-21.333v-250.965l-100.864 161.28c-6.059 9.557-16.981 15.872-27.819 15.019-11.264-0.171-21.504-6.315-27.051-16.128l-144.981-253.696-56.661 84.907c-6.229 9.216-18.347 15.189-27.733 14.251-11.093-0.427-21.163-6.485-26.709-16.043l-130.987-229.291h-118.528c-11.776 0-21.333 9.557-21.333 21.333zM917.333 113.778h-447.744l87.125 152.491 56.576-84.907c6.229-9.131 16.384-12.971 27.819-14.251 11.093 0.427 21.163 6.485 26.624 16.043l144.213 252.331 126.72-202.752v-97.621c0-11.776-9.557-21.333-21.333-21.333zM106.667 284.359v0c-11.776 0.085-21.333 9.643-21.333 21.419v469.333c0 11.776 9.557 21.333 21.333 21.333h640c11.776 0 21.333-9.557 21.333-21.333 0-23.552 19.2-42.667 42.667-42.667s42.667 19.115 42.667 42.667c0 5.888-1.195 11.52-3.328 16.64-8.363 50.603-50.432 90.027-103.339 90.027h-640c-58.795 0-106.667-47.872-106.667-106.667v-469.333c0-52.736 39.083-94.635 89.429-103.168 5.205-2.219 10.837-3.499 16.811-3.499 0.085 0 0.085 0 0.171 0s0.171 0 0.256 0v0.085c23.296 0.256 42.24 19.2 42.24 42.581s-18.944 42.325-42.24 42.581zM512 455.111c0-47.128-38.205-85.333-85.333-85.333s-85.333 38.205-85.333 85.333c0 47.128 38.205 85.333 85.333 85.333s85.333-38.205 85.333-85.333z" />
<glyph unicode="&#xe052;" glyph-name="current-location-2" d="M512 932.756c-254.054 0-460.8-206.746-460.8-460.8 0-254.106 206.746-460.8 460.8-460.8 254.106 0 460.8 206.694 460.8 460.8s-206.694 460.8-460.8 460.8zM537.6 114.836v162.816c0 14.080-11.469 25.6-25.6 25.6s-25.6-11.52-25.6-25.6v-162.816c-177.152 12.595-318.874 154.368-331.52 331.571h162.97c14.080 0 25.6 11.469 25.6 25.6s-11.52 25.6-25.6 25.6h-162.97c12.646 177.152 154.368 318.874 331.52 331.469v-166.195c0-14.131 11.469-25.6 25.6-25.6s25.6 11.469 25.6 25.6v166.195c177.203-12.646 318.925-154.317 331.52-331.52h-160.87c-14.080 0-25.6-11.469-25.6-25.6s11.52-25.6 25.6-25.6h160.87c-12.595-177.203-154.317-318.925-331.52-331.52z" />
<glyph unicode="&#xe056;" glyph-name="confirm" d="M512 967.111c-282.795 0-512-229.205-512-512 0-282.709 229.205-512 512-512 282.709 0 512 229.291 512 512 0 282.795-229.291 512-512 512zM835.328 633.287l-362.24-437.845c-12.203-14.848-30.293-23.211-49.323-23.211-0.853 0-1.621 0-2.389 0-19.883 0.768-38.4 10.752-49.92 27.051l-185.771 262.997c-20.309 28.928-13.483 68.864 15.36 89.173 29.013 20.309 68.779 13.483 89.259-15.36l137.387-194.645 308.907 373.333c22.528 27.221 62.72 31.147 90.197 8.533 27.221-22.528 31.061-62.891 8.533-90.027z" />
<glyph unicode="&#xe05a;" glyph-name="childcare" horiz-adv-x="1115" d="M929.909 966.61c102.765 0 186.091-83.328 186.091-186.091 0-102.581-83.325-185.909-186.091-185.909-102.581 0-185.907 83.328-185.907 185.909 0 102.763 83.325 186.091 185.907 186.091zM1115.907 314.586v-370.976h-372l0.003 372h0.093c0.093 102.765 83.328 186 185.907 186 102.765 0 186.091-83.325 186.091-186.093 0-0.277-0.093-0.651-0.093-0.931zM371.813 966.61c102.859 0 186.187-83.328 186.187-186.184 0-102.488-83.328-185.816-186.187-185.816-102.485 0-185.813 83.328-185.813 185.816 0 102.856 83.328 186.184 185.813 186.184zM557.909 314.586v-370.976h-372l-0.003 372h0.093c0.093 102.765 83.328 186 185.907 186 102.765 0 186.093-83.325 186.093-186.093 0-0.277-0.091-0.651-0.091-0.931zM161.728 731.322c32.456 27.155 32.643 71.795 0.371 99.229l-56.731 48.36c-32.269 27.435-58.683 8.091-58.683-43.059v-107.509c0-51.149 26.597-70.867 59.053-43.709l55.989 46.688zM582.088 731.322c-32.456 27.155-32.643 71.795-0.371 99.229l56.731 48.36c32.269 27.435 58.683 8.091 58.683-43.061v-107.509c0-51.149-26.597-70.867-59.053-43.709l-55.989 46.691z" />
<glyph unicode="&#xe05b;" glyph-name="casino" d="M845.824 967.111h-417.195c-60.16 0-112.64-30.891-144.043-77.397l-181.76-68.608c-39.68-14.933-71.168-44.459-88.661-83.285-17.408-38.485-18.859-81.579-3.84-121.344l214.101-567.296c23.125-61.44 82.859-102.827 148.48-102.827 5.547 0 11.093 0.939 16.555 1.536 12.715-2.987 25.685-4.779 39.168-4.779h417.195c96.512 0 175.019 78.421 175.019 174.848v674.304c0 96.427-78.507 174.848-175.019 174.848zM91.307 647.026c-6.741 18.091-6.059 37.632 1.792 55.211 8.021 17.664 22.272 31.061 40.363 37.803l351.232 132.608c8.277 3.157 16.725 4.693 25.6 4.693 29.696 0 56.832-18.859 67.328-46.763l214.187-567.296c6.827-18.005 6.144-37.547-1.792-55.125-8.021-17.664-22.272-31.061-40.448-37.888l-351.147-132.608c-36.267-13.568-79.36 5.888-92.928 41.984l-214.187 567.381zM927.744 117.959c0-44.971-36.779-81.749-81.92-81.749h-206.080l140.459 53.077c39.68 14.848 71.253 44.373 88.747 83.115 17.493 38.485 18.859 81.749 3.84 121.429l-52.309 138.496c1.451 2.304 3.328 4.267 4.693 6.656 15.445 27.477 23.211 55.040 23.211 80.896 0.341 48.896-28.587 89.856-69.632 108.544-11.605 5.376-23.723 7.936-35.84 9.557l-84.309 223.147c-1.707 4.608-4.267 8.619-6.4 12.885h193.707c45.141 0 81.92-36.779 81.92-81.749v-674.304zM525.141 241.692c0.341 0.085 0.512 0.171 0.939 0.256 14.421 5.632 25.173 17.835 29.269 32.512l59.819 217.173c5.632 20.651-2.389 42.325-20.309 54.016l-184.149 121.515c-12.885 8.448-28.928 10.325-43.52 5.205-14.421-5.205-25.771-16.896-30.379-31.573l-68.523-220.416c-6.827-21.504 1.792-44.715 21.333-56.661l192.768-118.016c12.8-7.936 28.501-9.472 42.752-4.011z" />
<glyph unicode="&#xe05e;" glyph-name="photo-camera" horiz-adv-x="1227" d="M1023.333 762.111c-43.184 0-226.259 0-409.333 0 0 84.731-68.768 153.501-153.501 153.501-39.501 0-62.835 0-102.333 0-84.731-0.003-153.499-68.768-153.499-153.501-112.976 0-204.667-91.691-204.667-204.667s0-296.355 0-409.333 91.691-204.667 204.667-204.667c86.267 0 732.397 0 818.667 0 112.976 0 204.667 91.691 204.667 204.667 0 65.803 0 282.952 0 409.333 0 112.976-91.691 204.667-204.667 204.667zM614 148.111c-112.976 0-204.667 91.691-204.667 204.667s91.691 204.667 204.667 204.667 204.667-91.691 204.667-204.667-91.691-204.667-204.667-204.667z" />
<glyph unicode="&#xe061;" glyph-name="business-sevices" d="M575.232 157.298c0-34.389-27.904-62.208-62.208-62.208-34.475 0-62.293 27.819-62.293 62.208v42.752c-160.939 5.973-313.6 33.195-450.731 79.36 0-79.019 0-145.749 0-165.632 0-94.208 76.459-170.667 170.667-170.667h682.667c94.208 0 170.667 76.459 170.667 170.667 0 19.883 0 86.613 0 165.632-136.533-45.909-288.683-73.131-448.768-79.275v-42.837zM853.333 796.444h-85.333c0 26.197 0 41.643 0 42.667 0 70.741-57.259 128-128 128-41.472 0-214.528 0-256 0-70.741 0-128-57.259-128-128s0-16.469 0-42.667h-85.333c-94.208 0-170.667-76.459-170.667-170.667 0-29.355 0-159.147 0-281.515 125.696-44.459 267.008-72.277 416.768-80.896-19.712 10.496-33.451 30.379-33.451 54.357 0 34.304 27.819 62.293 62.208 62.293h134.741c34.389 0 62.293-27.989 62.293-62.293 0-23.808-13.824-43.691-33.451-54.187 149.163 8.704 289.707 36.352 414.891 80.725 0 122.368 0 252.16 0 281.515 0 94.208-76.459 170.667-170.667 170.667zM341.333 796.444c0 47.189 38.144 85.333 85.333 85.333 15.957 0 154.709 0 170.667 0 47.189 0 85.333-38.144 85.333-85.333h-341.333z" />
<glyph unicode="&#xe063;" glyph-name="breakfast" d="M903.339 414.236c-16.043 0-31.488-3.328-45.568-8.96 0.512 9.472 1.365 19.029 1.365 28.843 0 30.123-21.419 54.613-47.787 54.613h-763.733c-26.283 0-47.616-24.491-47.616-54.613 0-270.677 192.768-491.008 429.483-491.008 167.595 0 312.747 110.677 383.488 271.189 22.187-25.344 54.272-41.472 90.368-41.472 66.475-0.085 120.661 54.101 120.661 120.576s-54.187 120.832-120.661 120.832zM317.269 107.975c-9.131-14.507-24.747-22.357-40.619-22.357-8.789 0-17.664 2.304-25.515 7.339-90.453 56.832-148.224 154.624-154.539 261.803-1.707 26.368 18.603 49.152 45.056 50.688 25.941 1.024 49.152-18.688 50.688-44.971 4.523-76.203 45.483-145.835 109.739-186.197 22.528-14.165 29.269-43.861 15.189-66.304zM903.339 236.487c-31.488 0-57.088 25.515-57.088 57.003s25.6 57.344 57.088 57.344c31.403 0 57.088-25.856 57.088-57.344s-25.685-57.003-57.088-57.003zM253.099 746.695c30.549-66.304 33.024-84.395 12.544-96.683-15.104-9.131-20.139-28.757-11.008-43.776 5.973-9.984 16.64-15.616 27.477-15.616 5.632 0 11.264 1.536 16.384 4.608 74.411 44.544 38.741 121.771 12.885 178.176l-5.547 11.861c-14.933 33.024 17.92 59.136 21.931 62.208 14.165 10.411 17.237 30.464 6.827 44.715s-30.293 17.323-44.629 7.083c-27.563-20.224-71.936-75.349-42.325-140.544l5.461-12.032zM391.851 746.695c30.549-66.304 32.853-84.395 12.373-96.683-15.104-9.131-19.968-28.757-10.923-43.776 6.059-9.984 16.555-15.616 27.477-15.616 5.632 0 11.264 1.536 16.469 4.608 74.24 44.459 38.656 121.771 12.715 178.176l-5.376 11.861c-15.104 33.024 17.749 59.136 21.76 62.208 14.251 10.411 17.323 30.464 6.997 44.715-10.496 14.251-30.464 17.323-44.715 7.083-27.648-20.224-71.851-75.349-42.411-140.544l5.632-12.032zM530.517 746.695c30.464-66.304 32.853-84.395 12.373-96.683-15.104-9.131-20.053-28.757-11.008-43.776 6.059-9.984 16.725-15.616 27.563-15.616 5.461 0 11.264 1.536 16.384 4.608 74.325 44.544 38.741 121.771 12.8 178.176l-5.376 11.861c-15.104 33.024 17.835 59.136 21.76 62.208 14.251 10.411 17.323 30.464 6.912 44.715-10.325 14.251-30.293 17.323-44.715 7.083-27.563-20.224-71.851-75.349-42.24-140.544l5.547-12.032z" />
<glyph unicode="&#xe065;" glyph-name="guidebook" d="M954.965 967.111c-95.061 0-300.032-33.792-442.965-152.661-142.848 118.869-347.819 152.661-442.795 152.661-57.173 0-69.205-27.307-69.205-50.261v-784.555c0-14.336 6.656-27.819 17.664-37.035 11.179-9.045 26.112-12.8 40.021-9.984 0.683 0.171 186.709 37.973 426.496-133.291 0.853-0.683 1.792-0.768 2.645-1.28 1.195-0.768 2.048-1.792 3.328-2.389 0.683-0.341 1.707-0.171 2.475-0.597 6.229-2.731 12.715-4.608 19.371-4.608s13.227 1.877 19.456 4.693c0.853 0.427 1.792 0.256 2.56 0.597 1.28 0.597 2.133 1.707 3.243 2.389 0.939 0.512 1.877 0.597 2.645 1.28 239.445 171.093 426.155 133.291 426.24 133.291 13.995-2.901 28.843 0.683 40.192 9.728 11.179 9.045 17.664 22.784 17.664 37.205v784.555c0 22.955-11.947 50.261-69.035 50.261zM464.043 79.303c-155.989 90.453-298.581 119.893-368.555 119.893-3.499 0-6.912 0-10.155-0.085v682.667c84.736-5.632 266.667-48.725 378.709-151.040v-651.435zM938.667 199.111c-68.437 1.621-214.955-24.832-378.709-119.808v651.435c112.213 102.315 294.059 145.408 378.709 151.040v-682.667zM731.051 262.77l96.341 24.235c22.784 3.755 38.059 25.259 34.304 47.957-3.755 22.784-25.259 38.059-47.957 34.219l-96.171-24.149c-22.699-3.755-38.059-25.088-34.389-47.957 3.84-22.528 25.259-37.973 47.872-34.304zM731.051 433.436l96.341 24.149c22.784 3.755 38.059 25.173 34.304 47.957-3.755 22.528-25.259 37.973-47.957 34.304l-96.171-24.235c-22.699-3.755-38.059-25.173-34.389-48.043 3.84-22.443 25.259-37.973 47.872-34.133zM731.051 604.103l96.341 24.235c22.784 3.669 38.059 25.088 34.304 47.872-3.755 22.699-25.259 37.973-47.957 34.389l-96.171-24.235c-22.699-3.84-38.059-25.344-34.389-47.957 3.84-22.784 25.259-38.144 47.872-34.304zM201.984 287.004l90.88-24.235c22.699-3.669 44.117 11.776 47.872 34.304 3.84 22.869-11.691 44.203-34.304 47.957l-90.965 24.149c-22.613 3.84-44.032-11.52-47.787-34.219s11.691-44.203 34.304-47.957zM201.984 457.586l90.88-24.149c22.699-3.84 44.117 11.691 47.872 34.133 3.84 22.869-11.691 44.288-34.304 47.957l-90.965 24.405c-22.613 3.669-44.032-11.861-47.787-34.304-3.755-22.869 11.691-44.288 34.304-48.043zM201.984 628.338l90.88-24.235c22.699-3.84 44.117 11.52 47.872 34.304 3.84 22.613-11.691 44.117-34.304 47.957l-90.965 24.235c-22.613 3.584-44.032-11.776-47.787-34.389-3.755-22.784 11.691-44.203 34.304-47.872z" />
<glyph unicode="&#xe066;" glyph-name="bed" horiz-adv-x="1115" d="M1069.501 966.61c-25.669 0-46.501-20.832-46.501-46.499v-418.501h-930v139.501c0 25.667-20.832 46.499-46.499 46.499s-46.501-20.832-46.501-46.499v-651c0-25.669 20.832-46.501 46.501-46.501s46.499 20.832 46.499 46.501v232.499h930.003v-232.501c0-25.667 20.832-46.501 46.501-46.501s46.501 20.832 46.501 46.501v930.003c-0.005 25.667-20.837 46.499-46.504 46.499zM837 873.61c-17.389 0-168.608 0-186 0-51.429 0-93-41.568-93-93 0-17.392 0-75.608 0-93 0-51.429 41.573-93 93-93 17.392 0 168.611 0 186 0 51.429 0 93 41.573 93 93 0 17.392 0 75.608 0 93 0.003 51.432-41.571 93-93 93z" />
<glyph unicode="&#xe067;" glyph-name="beach" d="M642.56 640.114c36.949 14.251 77.483 16.64 101.973 6.144 23.552-9.813 51.2 0.597 62.208 24.064 9.131 19.797 34.816 47.104 79.701 64.427 27.733 10.837 57.344 15.189 81.835 11.691 2.133-0.341 4.437-0.427 6.656-0.427 0.427 0 0.768 0 1.28 0 26.368 0 47.787 21.419 47.787 47.957 0 13.995-5.973 26.624-15.616 35.328-64.171 86.272-184.149 135.595-331.349 135.595-76.629 0-157.696-14.507-236.885-40.448l-4.608 12.203c-9.557 24.661-37.632 36.693-62.123 27.307-24.747-9.557-36.949-37.376-27.307-62.123l4.608-11.776c-227.925-104.448-350.72-264.277-349.952-462.507 0.085-19.029 16.213-34.389 34.56-39.509 4.267-1.195 8.619-1.792 12.8-1.792 14.165 0 27.989 6.315 37.205 17.493 15.701 19.2 41.728 35.925 69.888 47.019 36.779 14.251 77.568 16.469 102.059 6.144 23.552-9.984 51.371 0.683 62.123 24.064 9.131 19.627 34.731 47.019 79.616 64.341 27.819 10.837 57.771 14.763 81.323 11.691l156.416-528.555h-571.733c-26.539 0-47.957-10.923-47.957-37.376s21.419-47.957 47.957-47.957h892.757c26.539 0 47.957 21.419 47.957 47.957s-21.504 37.376-47.957 37.376h-218.112l-168.789 559.787c12.629 17.749 35.669 37.973 71.68 51.883z" />
<glyph unicode="&#xe068;" glyph-name="bar" d="M951.125 831.943c22.528 23.979 22.528 60.331 0.171 80.811s-58.965 17.664-81.493-6.315l-23.296-24.661h-668.928l-23.296 24.661c-22.528 23.979-59.307 26.88-81.579 6.315s-22.272-56.832 0.171-80.811l353.792-376.832v-392.875h-170.667c-47.189 0-85.333-26.624-85.333-59.477 0-33.024 38.144-59.648 85.333-59.648h512c47.189 0 85.333 26.624 85.333 59.648 0 32.853-38.144 59.477-85.333 59.477h-170.667v392.875l353.792 376.832zM511.915 527.986l-253.696 268.459h507.563l-253.867-268.459z" />
<glyph unicode="&#xe06a;" glyph-name="arrow2-left" horiz-adv-x="532" d="M371.2 934.855l-343.467-401.835c-17.664-20.736-27.733-48.981-27.733-77.909 0-29.099 10.069-57.515 27.733-77.909l343.467-401.664c18.005-21.248 42.069-32.427 66.56-32.427 12.459 0 24.491 2.816 36.352 8.363 34.987 16.811 57.856 57.344 57.856 101.803v803.584c0 44.459-22.869 84.651-58.027 101.973-35.243 16.981-75.776 7.253-102.741-23.979z" />
<glyph unicode="&#xe06b;" glyph-name="arrow1-left" d="M428.629 938.012l-399.531-428.629c-18.688-18.347-29.099-43.776-29.099-69.717 0-26.027 10.411-51.627 29.099-69.888l399.531-397.653c18.859-18.859 44.203-29.013 69.973-29.013 12.8 0 25.515 2.475 37.973 7.509 36.779 15.36 60.757 51.456 60.757 91.477v157.013h336.043c49.92 0 90.624 40.533 90.624 90.539v330.752c0 50.176-40.704 90.709-90.624 90.709h-336.043v157.099c0 40.021-23.979 76.032-60.843 91.307-37.035 15.445-79.616 6.827-107.861-21.504z" />
<glyph unicode="&#xe06d;" glyph-name="airport" d="M935.083 181.703l-104.192 448 161.195 161.195c40.363 40.363 40.363 105.728 0 146.091-40.363 40.277-105.728 40.277-146.005 0l-163.328-163.413-442.453 102.827c-8.192 1.792-16.725-0.512-22.699-6.485l-85.248-85.163c-5.12-5.205-7.68-12.203-6.997-19.456 0.512-5.632 2.987-11.008 6.997-15.019 1.195-1.109 2.133-1.877 3.413-2.731l308.309-212.48-195.499-195.584h-147.541c-6.485 0-12.629-2.56-17.237-7.168l-75.008-75.008c-5.888-5.973-8.448-14.677-6.4-22.869 1.024-4.437 3.413-8.363 6.4-11.52 2.731-2.645 6.059-4.779 9.728-5.973l194.304-62.549 62.635-194.389c1.28-3.669 3.243-6.997 5.888-9.643 3.157-3.072 7.168-5.291 11.52-6.485 8.277-1.877 16.896 0.512 22.869 6.4l75.008 75.008c4.608 4.608 7.253 10.923 7.253 17.237v150.187l1.536 5.717 191.232 191.232 215.381-312.32c0.853-1.365 1.792-2.304 2.731-3.413 4.096-4.011 9.301-6.485 15.104-6.997 7.168-0.768 14.165 1.877 19.456 6.997l85.163 85.248c5.803 5.803 8.277 14.421 6.485 22.528z" />
<glyph unicode="&#xe070;" glyph-name="accessibility" horiz-adv-x="936" d="M932.789 136.647c-11.435 19.797-36.864 26.624-56.576 15.189l-80.472-46.592-169.731 286.805c-7.507 12.544-20.992 20.309-35.664 20.309h-229.123v69.12h288.341c22.955 0 41.387 18.517 41.387 41.387s-18.432 41.387-41.387 41.387h-288.341v172.373c44.885 17.237 76.8 60.245 76.8 111.019 0 65.963-53.504 119.467-119.381 119.467-65.963 0-119.384-53.504-119.384-119.467 0-51.541 33.195-95.232 79.104-111.787v-364.971c0-22.869 18.603-41.387 41.472-41.387h246.869l178.603-301.739c7.851-12.971 21.589-20.224 35.755-20.224 6.997 0 14.165 1.792 20.736 5.547l115.883 66.901c19.8 11.435 26.456 36.864 15.109 56.661zM590.683 126.236c-48.128-63.744-121.515-100.181-201.301-100.181-139.093 0-252.16 113.152-252.16 252.16 0 79.787 38.315 155.648 102.656 203.093 18.347 13.653 22.357 39.68 8.789 58.112-13.824 18.261-39.68 22.187-58.195 8.619-85.333-62.976-136.277-163.925-136.277-269.824 0.085-184.747 150.443-335.104 335.104-335.104 105.984 0 203.52 48.469 267.435 133.12 13.824 18.261 10.24 44.373-8.107 58.112-18.088 13.653-44.117 10.069-57.944-8.107z" />
<glyph unicode="&#xe071;" glyph-name="calendar-small" d="M782.080 780.538c-33.947 0-59.085 0-78.901 0v81.101c0 19.765-15.973 35.685-35.584 35.685-19.813 0-35.685-15.923-35.685-35.685v-81.099c-10.907 0-17.253 0-114.891 0-11.467 0-23.707 0-37.835 0-97.483 0-103.987 0-114.843 0l-0.003 81.099c0 19.765-15.923 35.685-35.584 35.685s-35.637-15.923-35.637-35.685v-81.099c-19.813 0-45.005 0-79.053 0-69.069 0-125.541-56.475-125.541-125.541v-514.251c0-69.069 56.475-125.541 125.541-125.541h568.011c69.12 0 125.595 56.475 125.595 125.541l0.005 514.248c0.051 69.069-56.475 125.541-125.595 125.541zM631.909 698.412v-62.363c0-19.661 15.923-35.584 35.685-35.584 19.611 0 35.584 15.923 35.584 35.584v62.363c30.208-13.211 51.405-42.651 51.405-76.955 0-46.693-39.013-84.533-87.040-84.533s-87.093 37.835-87.093 84.533c0.003 34.304 21.149 63.744 51.459 76.955zM293.12 698.466v-62.309c0-19.813 15.973-35.685 35.637-35.685 19.661 0 35.584 15.872 35.584 35.685l-0.003 62.256c30.261-13.211 51.456-42.651 51.456-76.955 0-46.693-39.013-84.533-87.093-84.533s-87.040 37.835-87.040 84.533c0.003 34.357 21.2 63.797 51.459 77.008zM843.109 151.751c0-34.765-28.16-62.875-62.923-62.875h-564.224c-34.661 0-62.821 28.107-62.821 62.875v259.072c0 34.765 28.16 62.923 62.821 62.923h564.275c34.765 0 62.923-28.16 62.923-62.923l0.003-259.072zM471.552 319.226l46.235 46.181c4.507 4.507 7.115 10.085 7.115 15.003 0 10.139-8.651 18.381-19.917 18.381h-125.029c-11.621 0-16.896-9.013-16.896-17.205 0-8.704 5.275-17.307 16.896-17.307h86.733l-51.405-48.485c-4.147-3.685-6.043-9.728-6.043-14.235 0-10.547 9.371-18.075 19.2-18.075 7.115 0 12.747 5.632 24.013 5.632 28.16 0 40.549-28.928 40.549-46.541 0-24.421-18.021-48.384-48.845-48.384-23.653 0-50.331 5.581-53.659 40.192-0.411 9.371-9.061 15.003-16.949 15.003-9.779 0-17.973-7.885-17.973-20.277 0-29.285 23.243-69.477 88.987-69.477 49.509 0 84.48 39.475 84.48 84.891 0.008 34.205-21.805 70.2-57.491 74.704zM621.515 402.887c-5.275 0-12.389-2.203-16.485-7.835l-51.456-69.477c-2.56-3.637-3.739-7.115-3.739-10.445 0-9.779 9.013-18.075 19.149-18.075 5.683 0 11.675 3.328 16.589 9.728l19.867 27.392v-158.107c0-11.211 8.651-16.485 17.664-16.485 8.603 0 17.611 5.323 17.611 16.485v208.435c-0.101 11.728-9.472 18.384-19.2 18.384z" />
<glyph unicode="&#xe072;" glyph-name="right-arrow-thick-open" d="M17.323 161.82l559.019-13.909c101.12-2.219 181.163 77.824 178.944 178.944l-13.909 559.019-366.507 9.045 9.131-375.808-375.723 9.216 9.045-366.507z" />
<glyph unicode="&#xe073;" glyph-name="alert" d="M983.125 103.367l-430.251 788.821c-22.528 41.216-59.221 41.216-81.749 0l-430.251-788.821c-22.528-41.131-2.475-74.923 44.459-74.923h853.333c46.933 0 66.901 33.792 44.459 74.923zM448 640.882c0 32.853 26.88 59.733 59.733 59.733h8.533c32.853 0 59.733-26.88 59.733-59.733v-247.979c0-32.853-26.88-59.733-59.733-59.733h-8.533c-32.853 0-59.733 26.88-59.733 59.733v247.979zM512 113.778c-47.189 0-85.333 38.315-85.333 85.675 0 47.189 38.144 85.504 85.333 85.504s85.333-38.315 85.333-85.504c0-47.36-38.144-85.675-85.333-85.675z" />
<glyph unicode="&#xe074;" glyph-name="half-star" horiz-adv-x="512" d="M512 921.543c-19.797 0-37.376-12.8-43.093-31.317l-100.181-307.285h-323.328c-19.371 0-37.205-12.8-43.349-31.915-5.803-18.773 0.853-39.168 16.64-50.773l261.291-189.952-99.669-307.541c-6.315-18.859 0.853-39.168 16.555-50.688 15.787-11.691 37.632-11.691 53.419 0l261.717 190.037v779.435z" />
<glyph unicode="&#xe075;" glyph-name="star" d="M978.517 582.94h-323.413l-99.925 307.285c-6.229 18.432-23.808 31.317-43.179 31.317-19.797 0-37.376-12.8-43.179-31.317l-100.096-307.285h-323.328c-19.371 0-37.205-12.8-43.349-31.915-5.803-18.773 0.853-39.168 16.64-50.773l261.291-189.952-99.669-307.541c-6.315-18.859 0.853-39.168 16.555-50.688 15.787-11.691 37.632-11.691 53.419 0l261.717 190.037 261.547-190.037c7.765-5.803 17.323-8.96 26.709-8.96s18.773 3.157 26.709 8.96c15.872 11.52 22.869 31.829 16.469 50.688l-99.84 307.541 261.461 189.952c15.872 11.605 22.699 32 16.64 50.773-6.229 18.859-23.723 31.915-43.179 31.915z" />
<glyph unicode="&#xe076;" glyph-name="info" d="M512 967.111c-282.709 0-512-229.291-512-512s229.291-512 512-512 512 229.291 512 512-229.291 512-512 512zM512 28.444c-235.605 0-426.667 190.976-426.667 426.667 0 235.605 191.061 426.667 426.667 426.667 235.691 0 426.667-191.061 426.667-426.667 0-235.691-190.976-426.667-426.667-426.667zM426.667 711.111c0-47.128 38.205-85.333 85.333-85.333s85.333 38.205 85.333 85.333c0 47.128-38.205 85.333-85.333 85.333s-85.333-38.205-85.333-85.333zM426.667 540.444h170.667v-426.667h-170.667z" />
<glyph unicode="&#xe077;" glyph-name="info-reverse" d="M814.165 757.362c-83.029 82.944-183.637 124.416-302.165 124.416s-219.221-41.472-302.251-124.416c-82.944-83.029-124.416-183.723-124.416-302.251s41.472-219.136 124.416-302.165c83.029-83.029 183.723-124.501 302.251-124.501s219.136 41.472 302.165 124.501 124.501 183.637 124.501 302.165-41.472 219.221-124.501 302.251zM597.333 156.444c0-23.467-19.2-42.667-42.667-42.667h-85.333c-23.467 0-42.667 19.2-42.667 42.667v341.333c0 23.467 19.2 42.667 42.667 42.667h85.333c23.467 0 42.667-19.2 42.667-42.667v-341.333zM597.333 668.444c0-23.467-19.2-42.667-42.667-42.667h-85.333c-23.467 0-42.667 19.2-42.667 42.667v85.333c0 23.467 19.2 42.667 42.667 42.667h85.333c23.467 0 42.667-19.2 42.667-42.667v-85.333z" />
<glyph unicode="&#xe078;" glyph-name="arrow-left" d="M231.253 595.228l388.352 371.883 166.741-166.741-193.365-185.259-0.683 0.853-160.768-160.683 160.683-160.853 0.512 0.683 193.365-185.259-166.827-166.741-388.011 371.627c-80.811 77.568-80.811 203.008 0 280.491z" />
<glyph unicode="&#xe079;" glyph-name="thick-tick" d="M991.061 603.42l-486.315-608.341c-27.477-32.939-67.669-51.968-110.507-51.968-1.707 0-3.584 0-5.291 0-44.715 1.707-85.845 23.979-111.616 60.672l-251.136 339.371c-45.653 64.512-30.123 153.771 34.389 199.339 65.024 45.568 153.941 30.208 199.68-34.389l142.848-186.283 367.275 464.384c50.432 60.843 140.459 69.547 201.643 19.029 61.013-50.432 69.461-140.8 19.029-201.813z" />
<glyph unicode="&#xe07a;" glyph-name="arrow-right" d="M725.76 314.738l-388.011-371.627-166.741 166.741 193.365 185.259 0.512-0.683 160.683 160.853-160.939 160.683-0.683-0.853-193.28 185.259 166.741 166.741 388.352-371.883c80.811-77.483 80.811-202.923 0-280.491z" />
<glyph unicode="&#xe07b;" glyph-name="right-arrow-thick-closed" d="M265.557-56.804l405.077 385.451c73.131 69.888 73.131 183.125 0 253.013l-405.077 385.451-265.557-252.757 272.213-259.243-272.213-259.157 265.557-252.757z" />
<glyph unicode="&#xe07c;" glyph-name="close" d="M913.408 160.711l-105.472-105.387-693.333 694.101 105.472 105.301zM808.021 854.642l105.387-105.387-693.589-693.675-105.301 105.301z" />
<glyph unicode="&#xe600;" glyph-name="star-bg" d="M853.333 967.111h-682.667c-93.867 0-170.667-76.8-170.667-170.667v-682.667c0-93.867 76.8-170.667 170.667-170.667h682.667c93.867 0 170.667 76.8 170.667 170.667v682.667c0 93.867-76.8 170.667-170.667 170.667zM840.789 500.423l-174.336-126.635 66.56-204.971c4.267-12.459-0.427-26.197-11.008-33.792-5.291-3.84-11.605-5.973-17.835-5.973s-12.544 2.133-17.749 5.973l-174.421 126.549-174.421-126.635c-10.581-7.68-25.088-7.68-35.584 0s-15.275 21.333-11.093 33.877l66.475 204.971-174.251 126.635c-10.581 7.765-15.019 21.333-11.093 33.792 4.096 12.629 16.043 21.248 28.928 21.248h215.467l66.816 204.8c3.84 12.459 15.531 20.992 28.757 20.992 12.885 0 24.576-8.619 28.757-20.907l66.645-204.8h215.552c12.971 0 24.661-8.704 28.928-21.248 4.011-12.544-0.512-26.112-11.093-33.877z" />
<glyph unicode="&#xe601;" glyph-name="heart-full" horiz-adv-x="1099" d="M906.898 900.626c-40.529 19.747-83.731 28.801-126.243 28.801-80.885-0.172-161.598-32.337-220.149-92.613-58.551 60.19-139.35 92.44-220.149 92.526-42.34 0-85.628-8.968-126.329-28.801-100.374-47.772-170.997-153.147-170.221-279.218 0-66.485 18.712-137.194 57.085-208.249 79.678-146.507 208.594-245.329 420.12-418.137 11.555-9.399 25.611-14.142 39.58-14.142 13.883 0 27.939 4.743 39.58 14.142 211.354 172.808 340.356 271.629 420.206 418.309 37.942 70.882 56.74 141.678 56.74 208.077 0.776 126.071-69.761 231.446-170.221 279.304z" />
<glyph unicode="&#xe602;" glyph-name="facebook2" d="M842.24 901.12h-660.48c-60.518 0-110.080-49.562-110.080-110.080v-660.48c0-60.57 49.562-110.029 110.029-110.029h334.029v315.75h-105.472v137.523h105.472v68.915c0 106.24 78.438 189.44 178.586 189.44h97.178v-155.341h-86.989c-22.733 0-29.389-13.056-29.389-31.078v-71.885h116.378v-137.574h-116.378v-315.802h167.066c60.57 0 110.029 49.51 110.029 110.029v660.531c0.102 60.518-49.408 110.080-109.978 110.080z" />
<glyph unicode="&#xe603;" glyph-name="arrow2-right" horiz-adv-x="532" d="M160.683 934.855c-26.88 31.232-67.499 40.96-102.741 23.979-35.157-17.323-57.941-57.515-57.941-101.973v-803.584c0-44.459 22.869-84.992 57.856-101.803 11.776-5.547 23.808-8.363 36.267-8.363 24.491 0 48.555 11.179 66.56 32.427l343.467 401.664c17.749 20.395 27.819 48.811 27.819 77.909 0 28.928-10.069 57.173-27.733 77.909l-343.552 401.835z" />
<glyph unicode="&#xe604;" glyph-name="arrow1-right" d="M622.182 103.674l288.922 287.59c15.002 14.643 23.347 34.97 23.398 55.706 0.051 20.787-8.192 41.318-23.091 55.962l-287.488 289.075c-15.053 15.155-35.277 23.398-55.962 23.45-10.291 0-20.429-2.048-30.413-6.042-29.389-12.032-48.691-40.96-48.742-72.96l-0.307-116.992-300.288 0.768c-39.987 0.102-72.55-32.358-72.653-72.243l-0.512-197.683c-0.102-40.090 32.307-72.602 72.346-72.704l300.288-0.768-0.307-116.992c-0.051-32 19.046-60.826 48.538-73.165 29.542-12.39 63.642-5.581 86.272 16.998z" />
<glyph unicode="&#xe605;" glyph-name="arrow-up" d="M652.373 702.236l371.627-387.925-166.741-166.741-185.259 193.195 0.683 0.512-160.853 160.768-160.683-160.853 0.853-0.683-185.259-193.28-166.741 166.741 371.797 388.352c77.568 80.811 203.008 80.811 280.576-0.085z" />
<glyph unicode="&#xe606;" glyph-name="arrow-down" d="M371.627 207.9l-371.627 387.925 166.741 166.741 185.259-193.28-0.683-0.427 160.853-160.768 160.683 160.853-0.853 0.683 185.259 193.365 166.741-166.827-371.797-388.267c-77.568-80.896-203.008-80.896-280.576 0z" />
<glyph unicode="&#xe607;" glyph-name="exclamation-boxed" d="M170.667-56.889h682.667c97.109 0 170.667 78.933 170.667 175.957v677.376c0 97.109-73.557 170.667-170.667 170.667h-682.667c-97.109 0-170.667-73.557-170.667-170.667v-677.376c0-97.024 73.557-175.957 170.667-175.957zM433.664 796.444h157.525v-341.333h-157.525v341.333zM512 346.823c58.027 0 105.045-47.104 105.045-105.045s-47.019-105.045-105.045-105.045c-58.112 0-105.131 47.104-105.131 105.045s47.019 105.045 105.131 105.045z" />
<glyph unicode="&#xe608;" glyph-name="checked-boxed" d="M853.333 967.111h-682.667c-97.109 0-170.667-78.933-170.667-175.957v-677.376c0-97.109 73.557-170.667 170.667-170.667h682.667c97.109 0 170.667 73.557 170.667 170.667v677.376c0 97.024-73.557 175.957-170.667 175.957zM831.317 596.338l-324.181-405.589c-18.261-21.931-45.141-34.645-73.643-34.645-1.109 0-2.389 0-3.584 0-29.867 1.109-57.259 16.043-74.325 40.448l-167.424 226.219c-30.464 43.008-20.139 102.571 22.869 132.949 43.349 30.379 102.656 20.139 133.12-22.955l95.232-124.16 244.821 309.504c33.621 40.619 93.611 46.421 134.4 12.715 40.704-33.621 46.421-93.867 12.715-134.485z" />
<glyph unicode="&#xe609;" glyph-name="left-arrow-thick-closed" d="M757.333-56.889l-402.688 386.645c-37.291 33.792-55.979 75.605-55.979 125.355s18.688 91.563 55.979 125.355l402.688 386.645 266.667-253.355-272.043-258.645 272.043-258.645-266.667-253.355z" />
<glyph unicode="&#xe60a;" glyph-name="left-arrow-thick-open" d="M1006.251 113.778l-558.251 1.365c-50.347-1.536-92.757 15.957-127.147 51.797-34.389 36.011-49.749 79.189-46.080 129.365l23.979 557.824 367.787 1.024-17.92-374.955 375.381 0.853-17.749-367.275z" />
<glyph unicode="&#xe60b;" glyph-name="rtl-half-star" horiz-adv-x="510" d="M0 967.111c23.040 0 37.12-11.179 42.496-33.451l100.864-320.512h321.024c21.248 0 35.413-11.093 42.496-33.451 6.912-22.357 1.707-40.021-16.043-52.992l-260.011-197.888 98.133-323.328c7.083-20.395 1.792-37.632-15.957-51.541-17.664-13.909-35.413-14.336-53.077-1.451l-259.925 200.704v813.909z" />
<glyph unicode="&#xe60c;" glyph-name="header-phone-popup" d="M758.101 398.962c-17.323 17.408-46.933 18.432-65.877 0.853l-9.557-9.387c-18.261-17.749-57.173-55.893-62.123-60.501 0.853 0.853 1.707 1.451 1.109 1.963-31.659 0-126.208 62.464-196.437 156.928-39.424 53.163-45.483 83.456-45.056 91.392l69.035 67.755c8.875 8.704 13.995 20.821 14.080 33.024 0.171 12.459-4.779 24.661-13.397 33.451l-234.069 238.507c-8.619 8.875-20.736 14.080-33.536 14.165-12.288 0-23.979-4.779-32.939-13.483l-11.179-11.008c-20.224-19.797-60.672-59.563-61.696-60.587l-2.645-2.56c-143.701-146.944-79.275-343.552 208.981-637.696 193.877-197.547 347.733-293.803 470.357-293.803v0c34.048 0 66.048 7.509 95.232 22.272 30.208 15.36 51.712 35.584 65.963 48.896l4.437 4.096c0.512 0.512 71.68 69.547 75.008 73.301 17.323 18.432 16.896 47.019-0.939 65.109l-234.752 237.312z" />
<glyph unicode="&#xe60d;" glyph-name="price-watch-logo" horiz-adv-x="1093" d="M1058.913 624.778c-18.189 29.849-42.042 54.168-69.226 72.624l-246.189 220.671c-0.999 0.933-1.866 1.799-2.865 2.665l-1.399 1.199v-0.067c-60.698 51.503-149.846 61.231-221.603 17.656-53.036-32.181-84.417-86.283-90.147-143.716l-0.267-0.067 0.2-0.999c-2.465-27.051 0.466-54.835 9.994-81.352l1.199-9.328c0 0-21.587 2.865-56.633-18.389-35.379-21.521-45.44-43.708-45.44-43.708l-2.332-1.133c-59.299 69.959-162.305 88.548-243.124 39.377-74.157-45.107-106.204-132.855-84.284-212.609h-0.067l87.349-332.205c2.065-10.594 4.731-21.121 8.328-31.581l0.067-0.267c5.53-16.124 12.726-31.915 21.854-46.972 67.894-111.535 213.075-146.914 324.61-79.154 111.535 67.694 147.047 213.009 79.154 324.543-2.732 4.397-5.53 8.662-8.462 12.859l0.533 0.267-69.559 139.252c0 0 8.728 28.517 42.575 48.039 28.983 16.657 59.165 13.925 59.165 13.925l94.545-123.528 0.466 0.333c2.465-4.664 5.064-9.261 7.729-13.859 67.827-111.401 213.075-146.981 324.61-79.087 111.401 67.827 146.914 213.075 79.22 324.61zM481.918 273.984c52.236-86.016 24.919-198.084-61.098-250.387-85.95-52.303-198.084-24.985-250.387 61.031-52.369 86.016-24.985 198.151 60.964 250.387 86.15 52.303 198.217 24.985 250.52-61.031zM951.642 346.341c-86.083-52.303-198.217-25.119-250.52 61.031-52.236 86.016-24.985 198.151 61.164 250.453 85.95 52.303 198.084 24.985 250.387-61.031 52.236-86.083 24.985-198.151-61.031-250.453z" />
<glyph unicode="&#xe60e;" glyph-name="squircle" d="M111.367 861.475c79.485 80.785 242.384 84.549 408.604 84.438 166.109-5.203 328.815-14.17 405.67-97.446 80.785-79.457 84.577-242.273 84.522-408.41-5.203-166.082-14.225-328.649-97.501-405.476-79.485-80.785-242.411-84.549-408.631-84.494-166.137 5.231-328.815 14.198-405.67 97.474-80.813 79.457-84.577 242.245-84.522 408.382 5.286 166.109 14.253 328.732 97.529 405.532z" />
<glyph unicode="&#xe60f;" glyph-name="thin-tick" d="M1001.813 641.564l-548.693-663.381c-18.432-22.357-45.909-35.072-74.752-35.072-1.28 0-2.56 0-3.669 0-30.208 1.195-58.197 16.213-75.605 40.96l-281.429 398.507c-30.72 43.776-20.395 104.192 23.381 134.997 43.947 30.976 104.277 20.48 135.168-23.211l208.213-294.912 467.883 565.675c33.963 40.96 95.061 47.104 136.619 12.885 41.131-34.133 46.933-95.317 12.885-136.448z" />
<glyph unicode="&#xe610;" glyph-name="wr-moon-no-bg" d="M1024.085 392.050c-21.675-148.821-103.424-287.659-238.933-372.139-242.944-151.296-560.469-72.192-708.693 175.872s-71.509 571.733 171.435 723.029c33.792 21.077 69.035 36.096 104.96 48.299-17.152-117.76 2.048-241.408 67.669-350.891 127.659-213.504 380.672-300.459 603.563-224.171zM761.6 88.434c-56.064-24.149-115.712-36.864-175.275-36.864-191.147 0-364.8 123.307-453.291 321.792-31.147 69.973-48.896 143.872-55.125 218.027-9.387-100.437 5.376-205.141 48.299-301.397 114.688-257.195 385.792-357.376 605.099-222.72 10.581 6.485 20.48 13.824 30.293 21.163z" />
<glyph unicode="&#xe611;" glyph-name="popup" d="M879.892 733.607h-441.47v-148.702h-220.734v-441.47h441.47v148.701h220.734v441.47zM585.578 217.014h-294.313v294.313h147.156v-219.189h147.156v-75.123zM806.313 365.715h-294.313v294.313h294.313v-294.313z" />
<glyph unicode="&#xe612;" glyph-name="wr-moon-bg-straight" d="M768 967.111h-512c-140.8 0-256-115.2-256-256v-512c0-140.8 115.2-256 256-256h512c140.8 0 256 117.333 256 256v512c0 140.8-115.2 256-256 256zM687.019 175.303c-156.16-97.28-360.107-46.507-455.339 113.067-95.317 159.488-45.995 367.616 110.165 464.896 21.675 13.568 44.288 23.296 67.328 31.061-11.008-75.605 1.451-155.136 43.52-225.621 82.091-137.387 244.651-193.28 388.011-144.128-13.995-95.829-66.56-185.003-153.685-239.275z" />
<glyph unicode="&#xe613;" glyph-name="minus" d="M0 544v-192c0-17.672 14.328-32 32-32h960c17.672 0 32 14.328 32 32v192c0 17.672-14.328 32-32 32h-960c-17.672 0-32-14.328-32-32z" />
<glyph unicode="&#xe614;" glyph-name="plus" d="M992 576h-352v352c0 17.672-14.328 32-32 32h-192c-17.672 0-32-14.328-32-32v-352h-352c-17.672 0-32-14.328-32-32v-192c0-17.672 14.328-32 32-32h352v-352c0-17.672 14.328-32 32-32h192c17.672 0 32 14.328 32 32v352h352c17.672 0 32 14.328 32 32v192c0 17.672-14.328 32-32 32z" />
<glyph unicode="&#xe615;" glyph-name="trash-bin" d="M291.36 839.297c0-64.013 0 0 0 0v-128.026h128.026v128.026h192.038v-128.026h128.026v128.026c0 0 0-64.013 0 0 0 128.026-64.013 128.026-128.026 128.026s-64.013 0-192.038 0-128.026-64.013-128.026-128.026zM931.488 743.277c0 17.604-14.403 32.006-32.006 32.006h-768.154c-17.604 0-32.006-14.403-32.006-32.006v-64.013c0-17.604 14.403-32.006 32.006-32.006v0c17.604 0 32.006-14.403 32.006-32.006v-640.128c0-17.604 14.403-32.006 32.006-32.006h640.128c17.604 0 32.006 14.403 32.006 32.006v640.128c0 17.604 14.403 32.006 32.006 32.006v0c17.604 0 32.006 14.403 32.006 32.006v64.013zM355.373 103.149c0-17.604-14.403-32.006-32.006-32.006v0c-17.604 0-32.006 14.403-32.006 32.006v474.591c0 17.54 14.403 32.006 32.006 32.006v0c17.604 0 32.006-14.467 32.006-32.006v-474.591zM547.411 103.149c0-17.604-14.403-32.006-32.006-32.006v0c-17.604 0-32.006 14.403-32.006 32.006v474.591c0 17.54 14.403 32.006 32.006 32.006v0c17.604 0 32.006-14.467 32.006-32.006v-474.591zM739.45 103.149c0-17.604-14.403-32.006-32.006-32.006v0c-17.604 0-32.006 14.403-32.006 32.006v474.591c0 17.54 14.403 32.006 32.006 32.006v0c17.604 0 32.006-14.467 32.006-32.006v-474.591z" />
<glyph unicode="&#xe616;" glyph-name="value-add" horiz-adv-x="939" d="M768 54.044c0-61.013-49.92-110.933-110.933-110.933h-546.133c-61.013 0-110.933 49.92-110.933 110.933v460.8c0 61.013 49.92 110.933 110.933 110.933h546.133c61.013 0 110.933-49.92 110.933-110.933v-460.8zM628.139 955.847c-11.008 6.144-23.467 9.387-37.461 9.301-44.8 0.085-107.349-42.837-152.917-92.16-13.909-15.019-35.499-47.531-53.333-82.176-18.091 35.072-39.851 68.011-53.845 83.2-45.909 49.323-108.459 92.331-153.259 92.331-14.080 0-26.624-3.328-37.547-9.472-20.139-11.093-32.939-31.403-36.693-56.832-6.229-42.752 14.763-95.829 57.685-145.323 4.693-5.291 45.312-42.24 96.171-62.464 41.813-16.555 88.832-23.552 118.699-23.381 26.197-3.755 84.821 1.963 135.765 22.272 51.029 20.224 91.563 57.259 96.171 62.635 42.837 49.408 63.488 102.315 57.173 145.237-3.413 25.344-16.384 45.483-36.608 56.832zM205.653 817.692c-30.379 35.243-44.032 65.451-48.384 82.091 28.843-3.157 80.043-32.256 124.075-83.115 30.549-35.072 44.288-65.195 48.64-82.176-29.099 3.499-80.043 32.171-124.331 83.2zM562.859 817.692c-44.203-51.029-95.232-79.701-124.245-83.2 4.267 17.067 18.005 47.189 48.469 82.176 44.032 50.859 95.232 79.957 124.075 83.115-4.352-16.64-18.005-46.848-48.299-82.091z" />
<glyph unicode="&#xe617;" glyph-name="reviews-all" d="M512 967.111c-282.675 0-512-229.222-512-511.898 0-282.829 229.325-512.102 512-512.102 282.726 0 512 229.274 512 512.102 0 282.675-229.274 511.898-512 511.898zM941.619 391.009c-7.68 0-15.514 2.714-21.555 8.294-44.288 40.294-75.93 72.755-98.458 99.072v-164.813c0-4.864-1.178-9.626-3.277-13.978-52.89-108.595-112.077-235.418-117.402-256.563-1.894-7.68-5.683-15.206-10.138-22.528-42.547-18.381-88.474-30.413-136.55-34.97l-62.771 164.71c-1.331 3.226-2.048 6.81-2.15 10.291l-3.84 113.664c-37.939 17.050-115.968 57.856-137.114 112.845-28.211 73.37 33.741 152.576 40.858 161.28 3.942 4.813 9.114 8.397 15.002 10.291l125.133 40.243c10.598 3.379 21.914 1.075 30.413-6.042 8.448-7.014 12.595-17.971 11.11-28.877-0.154-2.355 0.41-10.803 11.008-16.896 0.358 0 11.622-3.635 56.013-3.635 49.408 0 110.336 4.608 135.987 6.707-9.011 23.859-2.918 35.277 0.922 42.445-2.611 3.891-21.914 17.203-41.83 26.726l-84.173-31.59c-15.309-5.888-32.717 1.024-39.987 15.821l-16.282 33.28-21.402 8.704-99.43-5.581c-11.264-0.973-21.35 4.301-27.699 13.107-6.451 8.806-7.885 20.224-3.942 30.413l38.042 97.792c3.123 8.090 9.421 14.49 17.459 17.869 7.987 3.43 16.947 3.277 24.934-0.051 24.525-10.496 97.229-37.683 139.418-37.683 17.869 0 34.714 10.086 47.872 21.555-33.28 20.326-52.070 40.243-55.859 59.341-2.15 10.547-2.714 17.357-1.075 22.63 181.402-58.726 312.934-228.966 312.934-429.619 0-19.712-1.638-38.912-4.147-57.958-5.53-3.891-11.622-6.298-18.022-6.298zM60.262 455.213c0 54.221 10.035 105.984 27.699 154.163l14.592-15.872c4.454-5.274 7.219-11.776 7.578-18.739l3.482-55.654 49.51-35.328c9.933-7.168 15.002-19.251 13.005-31.283-0.563-3.226-13.875-81.357-64.358-133.069-10.445-10.701-11.162-29.030-11.725-48.486-25.344 56.32-39.782 118.63-39.782 184.269zM596.122 898.759c0.41-1.28 1.126-2.355 1.382-3.686l5.325-32c0.307-1.741 0.461-3.482 0.461-5.274 0-15.309-11.162-28.877-26.726-31.539-1.792-0.358-3.584-0.461-5.376-0.461-15.206 0-28.774 11.162-31.386 26.726l-5.325 32c-0.307 1.843-0.461 3.584-0.461 5.274 0 5.734 1.946 10.957 4.71 15.77 19.405-1.178 38.554-3.277 57.395-6.81z" />
<glyph unicode="&#xe618;" glyph-name="reviews-business" d="M876.646 706.298h-131.738v55.552c0 42.598-16.691 81.306-43.725 109.312-26.982 28.006-64.358 45.363-105.523 45.363h-165.734c-41.062 0-78.234-17.357-105.318-45.363l-0.205-0.102c-26.931-28.058-43.827-66.611-43.827-109.21v-55.552h-131.635c-81.050 0-147.302-68.608-147.302-152.525v-195.686c125.491-46.080 266.598-74.65 416.102-83.558-19.661 10.854-33.382 31.437-33.382 56.115 0 35.635 27.853 64.461 62.157 64.461h134.451c34.304 0 62.208-28.774 62.208-64.461 0-24.627-13.875-45.21-33.28-56.013 148.787 8.96 289.178 37.53 414.157 83.456v195.686c-0.051 83.917-66.355 152.525-147.405 152.525zM668.467 706.298h-311.296v55.552c0 20.89 8.192 39.782 21.299 53.35 13.158 13.67 31.386 22.067 51.456 22.067h165.734c20.019 0 38.195-8.499 51.405-22.118 13.158-13.722 21.402-32.614 21.402-53.35v-55.501zM575.949 164.653c0-35.635-27.904-64.41-62.157-64.41-34.458 0-62.208 28.774-62.208 64.41v44.186c-160.563 6.246-313.037 34.355-449.997 82.176v-195.226c0-84.019 66.304-152.678 147.354-152.678h727.706c81.050 0 147.354 68.659 147.354 152.678v195.277c-136.346-47.565-288.205-75.776-448.051-82.125v-44.288z" />
<glyph unicode="&#xe619;" glyph-name="reviews-family" d="M921.139 421.626v0.563c-0.205 3.379-0.461 6.758-0.717 10.086l-0.307 2.099-0.41 3.226-0.307 2.509-0.41 2.816-0.563 2.97-0.256 2.099-0.666 3.635-0.41 1.792-0.614 3.686-0.41 1.382c-15.565 69.069-63.744 124.928-126.925 150.886 43.418 27.136 72.653 75.674 72.653 131.533 0 85.453-67.635 154.829-150.938 154.829s-150.835-69.325-150.835-154.829c0-55.706 29.030-104.141 72.192-131.328-53.299-22.067-95.846-65.638-117.043-120.525-0.205 2.304-0.205 4.608-0.205 6.861v0.512c-0.256 3.482-0.512 6.81-0.819 10.24l-0.205 2.048-0.41 3.123-0.358 2.56-0.358 2.816-0.563 2.918-0.256 2.253-0.666 3.43-0.41 1.843-0.717 3.738-0.358 1.434c-15.36 68.096-62.362 123.341-124.109 149.811 41.933 27.443 69.888 75.264 69.888 130.048 0 85.453-67.635 154.778-150.938 154.778s-150.938-69.325-150.938-154.778c0-54.784 27.955-102.605 69.888-130.048-61.747-26.47-108.698-81.766-124.211-149.811l-0.205-1.434-0.717-3.738-0.41-1.843-0.666-3.43-0.307-2.202-0.512-2.918-0.41-2.816-0.307-2.56-0.461-3.226-0.205-2.048c-0.358-3.379-0.614-6.707-0.768-10.24v-0.41c-0.205-3.584-0.41-7.219-0.41-10.957v-324.045c0-4.045 0.102-8.090 0.41-12.083v-0.563c0.154-3.379 0.41-6.707 0.768-10.035l0.205-2.048 0.41-3.277 0.307-2.509 0.41-2.867 0.512-3.072 0.307-1.997 0.666-3.584 0.41-1.741 0.717-3.686 0.256-1.434c19.763-86.989 90.573-153.856 178.483-165.274 1.638-0.205 3.533-0.41 5.274-0.563 1.843-0.205 3.584-0.358 5.325-0.41 1.741-0.205 3.584-0.41 5.325-0.563 1.843-0.051 3.635-0.051 5.427-0.051 1.792-0.102 3.635-0.102 5.376-0.102 1.792 0 3.635 0 5.427 0.102l5.376 0.051 5.325 0.563c1.792 0.051 3.584 0.205 5.325 0.41l5.222 0.563c0.154 0 0.256 0.102 0.358 0.102v57.344c0.051 3.174 0.102 6.246 0.358 9.267v0.358c0.154 2.918 0.358 5.734 0.666 8.499l0.102 1.638 0.461 2.765 0.154 2.048 0.358 2.509 0.461 2.406 0.154 1.792 0.614 2.97 0.358 1.382 0.614 3.174 0.256 1.178c16.333 72.397 75.315 128.102 148.582 137.626l4.403 0.512c1.382 0.051 3.021 0.256 4.403 0.41l4.608 0.307 4.352 0.205c1.434 0.102 3.021 0.102 4.557 0.102 1.485 0 3.072 0 4.506-0.102 1.485-0.051 3.021-0.102 4.506-0.205s3.123-0.154 4.454-0.307c1.434-0.154 3.072-0.358 4.454-0.41 1.485-0.102 2.97-0.307 4.403-0.512 73.267-9.523 132.352-65.178 148.634-137.626l0.307-1.178 0.563-3.174 0.41-1.382 0.563-2.97 0.256-1.792 0.358-2.406 0.461-2.509 0.205-2.048 0.307-2.765 0.256-1.638c0.307-2.765 0.512-5.581 0.666-8.499v-0.358c0.102-3.277 0.307-6.707 0.307-10.086v-56.218c0.512-0.154 0.87-0.307 1.331-0.41h0.051c1.638-0.205 3.533-0.41 5.325-0.563 1.69-0.205 3.482-0.358 5.325-0.41 1.69-0.205 3.482-0.41 5.325-0.563 1.843-0.051 3.635-0.051 5.376-0.051 1.843-0.102 3.584-0.102 5.376-0.102 1.741 0 3.584 0 5.376 0.102l5.478 0.051 5.325 0.563c1.741 0.051 3.533 0.205 5.325 0.41l5.274 0.563c87.91 11.469 158.822 78.234 178.381 165.274l0.358 1.382 0.768 3.686 0.41 1.741 0.666 3.584 0.256 1.997 0.563 3.072 0.41 2.867 0.307 2.509 0.41 3.277 0.307 2.048c0.256 3.328 0.512 6.656 0.717 10.035v0.563c0.154 3.635 0.41 7.219 0.41 10.854v249.754c0 4.147-0.256 8.243-0.461 12.186zM507.29 212.986c-74.189 0-134.349 61.645-134.349 137.728 0 76.032 60.109 137.728 134.349 137.728 74.086 0 134.349-61.747 134.349-137.728 0-76.083-60.262-137.728-134.349-137.728z" />
<glyph unicode="&#xe61a;" glyph-name="reviews-friends" d="M853.914 617.057c71.27 0 129.229 61.798 129.229 138.138s-58.010 138.24-129.229 138.24c-71.424 0-129.229-61.901-129.229-138.24-0.051-76.339 57.805-138.138 129.229-138.138zM1022.72 350.561v56.115c0 3.43-0.154 6.861-0.256 10.189v0.358c-0.256 2.867-0.41 5.734-0.666 8.55l-0.256 1.638-0.307 2.765-0.205 2.099-0.358 2.406-0.41 2.458-0.256 1.792-0.563 2.97-0.307 1.485-0.614 3.174-0.256 1.126c-15.718 72.602-72.55 128.563-143.053 138.086-1.331 0.154-2.816 0.358-4.198 0.512-1.331 0.051-2.816 0.205-4.25 0.358-1.331 0.102-2.918 0.205-4.352 0.256-1.331 0.051-2.867 0.102-4.301 0.154-1.28 0.154-2.816 0.154-4.198 0.154-1.485 0-3.021 0-4.403-0.102l-4.147-0.154-4.352-0.256c-1.485-0.154-3.021-0.307-4.352-0.358l-4.198-0.512c-70.554-9.523-127.181-65.485-143.002-138.086l-0.256-1.126-0.614-3.174-0.922-4.454-0.154-1.792-0.41-2.458-0.461-2.406-0.154-2.099-0.41-2.765-0.154-1.638c-0.256-2.816-0.461-5.683-0.614-8.55v-0.358c-0.256-3.072-0.307-6.042-0.358-9.216v-57.651h1.229v-56.166c0-3.379 0.154-75.213 0.307-78.541v-0.358c0.205-2.867 0.358-5.786 0.614-8.55l0.256-1.638 0.358-2.765 0.154-2.099 0.461-2.406 0.307-2.458 0.256-1.792 0.614-2.918 0.307-1.485 0.563-3.174 0.307-1.178c15.77-72.653 72.55-128.563 143.002-138.086 1.382-0.205 2.816-0.41 4.25-0.563 1.28 0 2.816-0.205 4.301-0.358 1.229-0.154 2.867-0.154 4.301-0.256 1.28-0.102 2.867-0.154 4.301-0.205 1.28-0.051 2.867-0.051 4.25-0.051 1.536 0 3.072 0 4.403 0.051l4.198 0.205 4.352 0.256c1.434 0.154 2.97 0.358 4.352 0.358l4.147 0.563c70.554 9.574 127.283 65.434 143.002 138.086l0.256 1.178 0.666 3.174 0.307 1.485 0.563 2.918 0.154 1.792 0.512 2.458 0.358 2.406 0.154 2.099 0.461 2.765 0.154 1.638c0.256 2.765 0.41 5.683 0.614 8.55v0.358c0.256 3.072 0.307 74.496 0.358 77.619v57.651h-1.382zM683.571 406.676c0 3.43-0.205 6.861-0.307 10.189v0.358c-0.154 2.867-0.41 5.734-0.666 8.55l-0.256 1.638-0.256 2.765-0.205 2.099-0.41 2.406-0.358 2.458-0.256 1.792-0.922 4.454-0.563 3.174-0.358 1.126c-15.667 72.602-72.499 128.563-142.95 138.086-1.331 0.154-2.816 0.358-4.25 0.512-1.331 0.051-2.816 0.205-4.25 0.358-1.331 0.102-2.867 0.205-4.301 0.256-1.382 0.051-2.867 0.102-4.301 0.154-1.331 0.154-2.816 0.154-4.25 0.154-1.485 0-3.021 0-4.352-0.102l-4.198-0.205-4.352-0.256c-1.485-0.154-2.97-0.307-4.352-0.358l-4.198-0.512c-70.502-9.523-127.232-65.485-142.95-138.086l-0.256-1.126-0.614-3.174-0.307-1.485-0.563-2.97-0.154-1.792-0.41-2.458-0.41-2.406-0.154-2.099-0.358-2.765-0.154-1.638c-0.256-2.816-0.461-5.683-0.563-8.55v-0.358c-0.256-3.072-0.307-6.042-0.358-9.216v-57.651h1.229v-56.166c0-3.379 0.205-75.213 0.307-78.541v-0.358c0.205-2.867 0.41-5.786 0.614-8.55l0.256-1.638 0.358-2.765 0.154-2.099 0.358-2.406 0.358-2.458 0.256-1.792 0.563-2.918 0.205-1.434 0.563-3.174 0.307-1.178c15.718-72.653 72.55-128.563 143.002-138.086 1.331-0.205 2.765-0.41 4.25-0.563 1.331 0 2.816-0.205 4.25-0.358 1.28-0.154 2.867-0.154 4.301-0.256 1.382-0.102 2.918-0.154 4.301-0.205s2.867-0.051 4.301-0.051c1.485 0 3.021 0 4.352 0.051l4.198 0.205 4.403 0.256c1.434 0.154 2.97 0.358 4.301 0.358l4.198 0.563c70.502 9.574 127.232 65.434 142.95 138.086l0.256 1.178 0.666 3.174 0.358 1.485 0.512 2.918 0.256 1.792 0.41 2.458 0.358 2.406 0.256 2.099 0.307 2.765 0.205 1.638c0.307 2.765 0.461 5.683 0.614 8.55v0.358c0.256 3.072 0.307 74.496 0.358 77.619v57.651h-1.229v56.064zM514.714 617.057c71.322 0 129.229 61.798 129.229 138.138s-57.958 138.24-129.229 138.24c-71.424 0-129.229-61.901-129.229-138.24-0.051-76.339 57.805-138.138 129.229-138.138zM175.514 617.057c71.27 0 129.229 61.798 129.229 138.138s-57.958 138.24-129.229 138.24c-71.424 0-129.229-61.901-129.229-138.24s57.856-138.138 129.229-138.138zM344.371 406.676c0 3.43-0.205 6.861-0.307 10.189v0.358c-0.154 2.867-0.358 5.734-0.614 8.55l-0.205 1.638-0.307 2.765-0.154 2.099-0.358 2.406-0.358 2.458-0.256 1.792-0.563 2.97-0.307 1.485-0.563 3.174-0.41 1.075c-15.718 72.653-72.55 128.614-143.002 138.138-1.382 0.154-2.816 0.358-4.25 0.512-1.331 0.051-2.816 0.205-4.25 0.358-1.331 0.102-2.867 0.205-4.301 0.256-1.382 0.051-2.867 0.154-4.301 0.205-1.434 0.102-2.867 0.102-4.352 0.102-1.536 0-3.021 0-4.352-0.102l-4.198-0.205-4.352-0.256c-1.485-0.154-2.97-0.307-4.352-0.358l-4.147-0.512c-70.502-9.523-127.232-65.485-143.002-138.086l-0.256-1.126-0.614-3.174-0.307-1.485-0.563-2.97-0.205-1.792-0.41-2.458-0.41-2.406-0.154-2.099-0.358-2.765-0.205-1.638c-0.256-2.816-0.41-5.683-0.563-8.55v-0.358c-0.256-3.072-0.307-6.042-0.358-9.216v-57.651h1.229v-56.166c0-3.379 0.154-75.213 0.307-78.541v-0.358c0.205-2.867 0.358-5.786 0.614-8.55l0.256-1.638 0.307-2.765 0.205-2.099 0.358-2.406 0.358-2.458 0.256-1.792 0.563-2.918 0.307-1.434 0.563-3.174 0.307-1.178c15.718-72.653 72.55-128.563 143.002-138.086 1.382-0.205 2.816-0.41 4.25-0.563 1.28 0 2.816-0.205 4.25-0.358 1.28-0.154 2.867-0.154 4.301-0.256 1.382-0.102 2.867-0.154 4.301-0.205 1.382-0.051 2.867-0.051 4.301-0.051 1.485 0 3.021 0 4.352 0.051l4.198 0.205 4.403 0.256c1.434 0.154 2.97 0.358 4.301 0.358l4.198 0.563c70.502 9.574 127.232 65.434 143.002 138.086l0.205 1.178 0.666 3.174 0.307 1.485 0.563 2.918 0.154 1.792 0.41 2.458 0.358 2.406 0.205 2.099 0.41 2.765 0.154 1.638c0.256 2.765 0.461 5.683 0.563 8.55v0.358c0.256 3.072 0.307 74.496 0.358 77.619v57.651h-1.178v56.064z" />
<glyph unicode="&#xe61b;" glyph-name="reviews-other" d="M513.485 633.953c86.067 0 156.058 74.65 156.058 166.861 0 92.16-69.99 166.912-156.058 166.912-86.221 0-156.058-74.752-156.058-166.912-0.051-92.211 69.837-166.861 156.058-166.861zM717.414 312.109v67.789c0 4.096-0.256 8.243-0.41 12.288v0.41c-0.205 3.43-0.461 6.963-0.768 10.291l-0.307 2.048-0.358 3.277-0.256 2.56-0.461 2.918-0.461 2.97-0.307 2.15-0.717 3.533-0.358 1.843-0.717 3.789-0.41 1.382c-18.893 87.706-87.552 155.29-172.646 166.758-1.638 0.205-3.379 0.461-5.12 0.614-1.587 0.051-3.379 0.256-5.12 0.461-1.587 0.154-3.482 0.256-5.222 0.307-1.536 0.102-3.328 0.205-5.12 0.256-1.638 0.102-3.482 0.102-5.222 0.102-1.843 0-3.635 0-5.274-0.102l-5.018-0.205-5.274-0.358c-1.741-0.205-3.533-0.358-5.222-0.41l-5.069-0.666c-85.146-11.469-153.651-79.053-172.646-166.758l-0.307-1.382-0.768-3.789-0.358-1.843-0.717-3.533-0.205-2.15-0.512-2.97-0.461-2.918-0.205-2.56-0.461-3.277-0.205-2.048c-0.307-3.328-0.512-6.861-0.666-10.291v-0.41c-0.307-3.686-0.358-7.373-0.461-11.162v-69.632h1.485v-67.738c0-4.147 0.205-90.829 0.358-94.874v-0.41c0.205-3.482 0.461-7.014 0.768-10.342l0.307-2.048 0.41-3.277 0.205-2.509 0.461-2.918 0.461-3.021 0.307-2.202 0.666-3.482 0.358-1.792 0.666-3.789 0.358-1.382c18.944-87.706 87.603-155.29 172.698-166.81 1.638-0.205 3.379-0.512 5.12-0.614 1.587-0.102 3.379-0.307 5.12-0.512 1.587-0.102 3.482-0.205 5.222-0.307 1.638-0.102 3.482-0.102 5.222-0.205 1.638-0.051 3.43-0.051 5.171-0.051 1.843 0 3.635 0 5.325 0.102l5.069 0.205 5.274 0.307c1.741 0.205 3.533 0.41 5.222 0.512l5.069 0.614c85.146 11.52 153.651 79.104 172.646 166.81l0.307 1.382 0.819 3.789 0.41 1.792 0.666 3.482 0.256 2.202 0.512 3.021 0.461 2.918 0.256 2.509 0.666 5.325c0.358 3.328 0.563 6.861 0.717 10.342v0.41c0.307 3.686 0.358 89.907 0.461 93.696v69.581h-1.69z" />
<glyph unicode="&#xe61c;" glyph-name="reviews-romance" d="M856.525 884.167c-40.141 19.098-83.046 27.853-125.286 27.853-80.282-0.154-160.614-31.232-218.726-89.6-58.163 58.266-138.445 89.446-218.624 89.6-42.189 0-85.248-8.653-125.491-27.853-99.789-46.336-169.933-148.326-169.216-270.285 0-64.307 18.483-132.864 56.627-201.523 79.155-141.773 207.309-237.517 417.382-404.736 11.571-9.165 25.446-13.722 39.27-13.722 13.926 0 27.802 4.557 39.322 13.722 210.074 167.27 338.125 263.014 417.536 404.838 37.786 68.557 56.371 137.114 56.371 201.421 0.819 121.958-69.171 223.949-169.165 270.285zM863.283 477.025c-53.914-99.482-157.338-186.061-345.037-334.592-187.648 148.531-291.328 235.11-344.986 334.592-28.928 52.429-40.038 98.458-40.038 136.909 0.973 71.68 35.789 121.856 95.027 151.040 21.811 10.547 46.234 15.77 71.27 15.77 0.256 0 0.461 0 0.717 0 67.584 0 134.349-39.322 159.846-97.382 10.547-23.142 33.229-38.093 58.317-37.99 24.883 0 47.77 15.002 58.163 38.093 25.549 58.163 92.621 97.536 160.461 97.28 24.832 0 49.254-5.222 71.424-15.77v0.102c58.982-29.133 93.952-79.36 94.72-151.142-0.102-38.451-11.059-84.685-39.885-136.909z" />
<glyph unicode="&#xe61d;" glyph-name="reviews-all-bg" d="M578.446 690.318c-0.882-2.93-0.597-6.713 0.597-12.572 2.105-10.61 12.516-21.675 31.033-32.939-7.31-6.4-16.668-12.004-26.596-12.004-23.41 0-63.829 15.104-77.454 20.935-4.437 1.849-9.415 1.934-13.824 0.057-4.466-1.877-7.964-5.433-9.728-9.956l-21.134-54.329c-2.19-5.632-1.365-12.004 2.19-16.896 3.499-4.892 9.102-7.794 15.388-7.282l55.211 3.1 11.89-4.836 9.045-18.489c4.068-8.22 13.71-12.060 22.215-8.846l46.763 17.55c11.093-5.291 21.817-12.658 23.239-14.82-2.105-4.011-5.49-10.325-0.512-23.609-14.251-1.138-48.1-3.726-75.548-3.726-24.661 0-30.919 2.048-31.118 2.048-5.888 3.356-6.201 8.050-6.116 9.387 0.825 6.059-1.479 12.146-6.172 16.043-4.722 3.954-11.036 5.234-16.896 3.328l-69.518-22.329c-3.243-1.052-6.144-3.044-8.334-5.717-3.982-4.836-38.372-48.839-22.699-89.6 11.748-30.549 55.097-53.22 76.174-62.692l2.105-63.147c0.057-1.934 0.455-3.925 1.195-5.717l34.873-91.506c26.709 2.532 52.224 9.188 75.861 19.428 2.475 4.096 4.58 8.249 5.632 12.516 2.958 11.748 40.505 82.204 69.888 142.535 1.223 2.418 6.571 5.092 6.571 7.794v91.591c0-14.649 25.429-32.654 50.034-55.068 3.356-3.1 5.348-4.608 9.643-4.608 3.556 0 5.774 1.337 8.846 3.47 1.394 10.581 1.735 21.248 1.735 32.199-0.028 111.502-73.7 206.052-174.478 238.706zM516.722 672.341c1.451-8.647 8.988-14.82 17.436-14.82 0.996 0 1.991 0.057 2.987 0.256 8.676 1.479 14.848 8.988 14.848 17.522 0 0.939-0.085 1.934-0.256 2.901l-2.958 17.778c-0.142 0.74-0.569 1.337-0.768 2.048-10.439 1.963-21.106 3.129-31.943 3.783-1.508-2.645-2.617-5.547-2.617-8.761 0-0.939 0.085-1.906 0.284-2.958l2.987-17.749zM280.007 487.111l-1.934 30.948c-0.199 3.84-1.735 7.452-4.21 10.382l-8.107 8.846c-9.785-26.766-15.36-55.524-15.36-85.675 0-36.466 8.021-71.083 22.073-102.4 0.341 10.809 0.711 20.992 6.514 26.937 28.046 28.729 35.442 72.107 35.755 73.956 1.109 6.656-1.707 13.397-7.225 17.38l-27.506 19.627zM510.236 967.111c-281.828 0-510.236-228.409-510.236-510.236s228.409-510.236 510.236-510.236c281.771 0 510.236 228.38 510.236 510.236-0.028 281.828-228.466 510.236-510.236 510.236zM501.333 167.111c-157.042 0-284.444 127.374-284.444 284.501 0 157.042 127.403 284.388 284.444 284.388 157.070 0 284.444-127.346 284.444-284.388 0-157.127-127.374-284.501-284.444-284.501z" />
</font>
</defs>
</svg>
